<svg width="201" height="20" viewBox="0 0 201 20" fill="none" xmlns="http://www.w3.org/2000/svg">
  <g clip-path="url(#clip0_1010_50869)">
    <path d="M37.321 10.0027C33.8633 4.02396 27.4054 0 20 0C8.95725 0 0 8.95725 0 20H20C27.3999 20 33.8579 15.976 37.321 9.99728V10.0027Z" fill="url(#paint0_linear_1010_50869)"/>
    <path d="M20 0C27.3999 0 33.8579 4.02396 37.321 10.0027C39.0253 7.0569 40 3.6428 40 0H20Z" fill="#4D96FF"/>
  </g>
  <g clip-path="url(#clip1_1010_50869)">
    <path d="M62.1929 1.8374V4.46649H57.4839V18.5717H54.7358V4.46649H50V1.8374H62.1929Z" fill="black"/>
    <path d="M63.9376 13.6953C64.1295 14.6041 64.5669 15.3014 65.2521 15.7874C65.9373 16.2734 66.7732 16.5163 67.7621 16.5163C69.1326 16.5163 70.1604 16.0231 70.8456 15.0341L72.9741 16.2782C71.7957 18.0155 70.0486 18.883 67.7378 18.883C65.794 18.883 64.2243 18.2901 63.0288 17.1019C61.8333 15.9137 61.2356 14.4121 61.2356 12.5946C61.2356 10.7771 61.826 9.31429 63.0045 8.11152C64.183 6.90875 65.6968 6.30615 67.5459 6.30615C69.2978 6.30615 70.7387 6.9209 71.8613 8.14797C72.9839 9.37504 73.5476 10.8645 73.5476 12.6189C73.5476 12.891 73.516 13.2482 73.4528 13.6953H63.9376ZM63.9133 11.5911H70.9428C70.7679 10.6191 70.3645 9.8853 69.7352 9.39205C69.1058 8.89879 68.3672 8.65095 67.524 8.65095C66.5667 8.65095 65.7697 8.91337 65.1331 9.44064C64.4964 9.96549 64.0882 10.6847 63.9133 11.5911Z" fill="black"/>
    <path d="M81.3911 18.883C79.5906 18.883 78.0889 18.278 76.8837 17.0655C75.681 15.8554 75.0784 14.3635 75.0784 12.5946C75.0784 10.8257 75.6785 9.31429 76.8837 8.11152C78.0865 6.90875 79.5881 6.30615 81.3911 6.30615C82.555 6.30615 83.6144 6.58558 84.5717 7.14202C85.5291 7.70088 86.2459 8.44927 86.7246 9.38962L84.5013 10.6799C84.2291 10.1064 83.8209 9.6569 83.2694 9.32887C82.7202 9.00327 82.086 8.83804 81.3692 8.83804C80.3171 8.83804 79.4375 9.19766 78.728 9.91446C78.0185 10.6313 77.6637 11.5254 77.6637 12.5921C77.6637 13.6588 78.0185 14.553 78.728 15.2698C79.4375 15.9866 80.3171 16.3462 81.3692 16.3462C82.0714 16.3462 82.7032 16.1786 83.2694 15.8433C83.8355 15.5079 84.2607 15.0633 84.5474 14.5044L86.7708 15.7728C86.2605 16.7302 85.5267 17.4858 84.5717 18.0447C83.6144 18.6036 82.555 18.8806 81.3911 18.8806V18.883Z" fill="black"/>
    <path d="M94.9205 6.30588C96.2909 6.30588 97.3989 6.74325 98.2445 7.62042C99.0901 8.49759 99.5105 9.70036 99.5105 11.2312V18.5717H96.9275V11.496C96.9275 10.6043 96.6894 9.91904 96.2107 9.44037C95.7321 8.96169 95.0784 8.72357 94.2499 8.72357C93.3411 8.72357 92.6073 9.00543 92.0509 9.57158C91.492 10.1377 91.215 11.0028 91.215 12.1666V18.5741H88.6321V1.8374H91.215V8.15012C91.995 6.92305 93.2318 6.30831 94.9205 6.30831V6.30588Z" fill="black"/>
    <path d="M112.255 4.46649H105.201V9.15122H112.014V11.7803H105.201V18.5693H102.453V1.8374H112.255V4.46649Z" fill="black"/>
    <path d="M114.668 18.5717V1.11816H117.251V18.5693H114.668V18.5717Z" fill="black"/>
    <path d="M125.881 18.883C124.127 18.883 122.637 18.278 121.41 17.0655C120.183 15.8554 119.569 14.3635 119.569 12.5946C119.569 10.8257 120.181 9.33616 121.41 8.12367C122.637 6.91361 124.127 6.30615 125.881 6.30615C127.636 6.30615 129.145 6.91118 130.364 8.12367C131.584 9.33616 132.194 10.8257 132.194 12.5946C132.194 14.3635 131.584 15.8554 130.364 17.0655C129.145 18.278 127.65 18.883 125.881 18.883ZM123.228 15.2966C123.945 16.0134 124.829 16.373 125.881 16.373C126.933 16.373 127.818 16.0134 128.535 15.2966C129.252 14.5798 129.611 13.6783 129.611 12.5946C129.611 11.5109 129.252 10.6094 128.535 9.89259C127.818 9.17579 126.933 8.81618 125.881 8.81618C124.829 8.81618 123.945 9.17579 123.228 9.89259C122.511 10.6094 122.152 11.5109 122.152 12.5946C122.152 13.6783 122.511 14.5798 123.228 15.2966Z" fill="black"/>
    <path d="M147.828 6.61694H150.554L146.8 18.5693H144.266L141.78 10.512L139.27 18.5693H136.736L132.981 6.61694H135.708L138.026 14.8638L140.536 6.61694H142.997L145.483 14.8638L147.825 6.61694H147.828Z" fill="black"/>
    <path d="M171.963 3.74657L170.451 5.25854L173.938 8.74468L175.45 7.23271L171.963 3.74657Z" fill="black"/>
    <path d="M165.773 3.74262L162.287 7.22876L163.799 8.74074L167.285 5.2546L165.773 3.74262Z" fill="black"/>
    <path d="M163.425 2.93177H174.199V4.96069H176.337V0.856689H176.135H174.199H163.425H161.491H161.287V4.96069H163.425V2.93177Z" fill="black"/>
    <path d="M169.939 6.35229H167.801V9.39202H161.253V11.4671H163.707C162.973 15.4059 161.442 19.0288 161.425 19.0676L161.316 19.3252L163.372 19.9035L163.459 19.7115C163.476 19.6751 165.094 16.0959 165.867 11.4671H167.804V20.0007H169.942V11.4671H176.49V9.39202H169.942V6.35229H169.939Z" fill="black"/>
    <path d="M157.913 0.0046271L156.401 1.5166L159.339 4.45465L160.851 2.94267L157.913 0.0046271Z" fill="black"/>
    <path d="M157.914 4.89891L156.402 6.41089L159.34 9.34893L160.852 7.83696L157.914 4.89891Z" fill="black"/>
    <path d="M174.402 12.2724L172.344 12.8521L174.336 19.9247L176.394 19.345L174.402 12.2724Z" fill="black"/>
    <path d="M158.371 10.6779C157.817 14.8547 156.026 19.0244 156.007 19.0657L155.895 19.3257L157.95 19.904L158.038 19.7144C158.055 19.678 159.78 15.9336 160.441 11.1906L160.47 10.9767L158.407 10.396L158.371 10.6779Z" fill="black"/>
    <path d="M189.873 0.206787H187.735V1.97085H184.732V4.04593H187.735V5.3459H184.858V13.9548H187.735V15.2815H184.732V17.3566H187.735V19.9978H189.873V17.3566H192.75V15.2815H189.873V13.9548H190.464C191.725 13.9548 192.75 12.9294 192.75 11.6683V5.3459H189.873V4.04593H192.75V1.97085H189.873V0.206787ZM190.612 11.6659C190.612 11.7509 190.544 11.819 190.459 11.819H186.997V10.6891H190.612V11.6659ZM190.612 7.48415V8.61403H186.997V7.48415H190.612Z" fill="black"/>
    <path d="M198.067 0.792725H193.55V20.0006H195.688V13.4765H198.069V17.6023C198.069 17.7457 197.953 17.8623 197.809 17.8623H196.862V20.0006H197.792C199.124 20.0006 200.208 18.9169 200.208 17.5853V0.792725H198.069H198.067ZM198.067 11.399H195.686V8.2013H198.067V11.399ZM198.067 6.12622H195.686V2.92855H198.067V6.12622Z" fill="black"/>
    <path d="M181.482 0.119129L179.97 1.6311L182.908 4.56915L184.42 3.05717L181.482 0.119129Z" fill="black"/>
    <path d="M181.484 5.01488L179.972 6.52686L182.91 9.4649L184.422 7.95293L181.484 5.01488Z" fill="black"/>
    <path d="M181.945 10.6766C181.391 14.8535 179.6 19.0231 179.581 19.0644L179.469 19.3244L181.525 19.9027L181.612 19.7132C181.629 19.6768 183.354 15.9324 184.015 11.1893L184.044 10.9755L181.981 10.3948L181.945 10.6766Z" fill="black"/>
  </g>
  <defs>
    <linearGradient id="paint0_linear_1010_50869" x1="0" y1="10.0027" x2="37.321" y2="10.0027" gradientUnits="userSpaceOnUse">
      <stop stop-color="#0072FF"/>
      <stop offset="1" stop-color="#0037FF"/>
    </linearGradient>
    <clipPath id="clip0_1010_50869">
      <rect width="40" height="20" fill="white"/>
    </clipPath>
    <clipPath id="clip1_1010_50869">
      <rect width="150.205" height="20" fill="white" transform="translate(50)"/>
    </clipPath>
  </defs>
</svg>