<svg width="110" height="74" viewBox="0 0 110 74" fill="none" xmlns="http://www.w3.org/2000/svg">
<path d="M47.8392 7.09961L4.94531 55.1733" stroke="black" stroke-width="2.1945"/>
<path d="M94.8653 17.2266L4.94531 55.1734" stroke="black" stroke-width="2.1945"/>
<path d="M48.4786 67.3382L4.82812 55.2324" stroke="black" stroke-width="2.1945"/>
<path d="M49.0029 6.63477L34.9766 43.1266" stroke="black" stroke-width="2.1945"/>
<path d="M50.6384 66.406L35.2734 42.6602" stroke="black" stroke-width="2.1945"/>
<path d="M48.8906 5.0625L94.9855 13.7926" stroke="black" stroke-width="2.1945"/>
<path d="M48.7734 4.53906L91.3181 38.5282" stroke="black" stroke-width="2.1945"/>
<path d="M98.129 20.6602L91.2031 38.7024" stroke="black" stroke-width="2.1945"/>
<path d="M49.5312 4.13281L51.8593 68.8519" stroke="black" stroke-width="2.1945"/>
<path d="M96.5516 18.916L51.5625 68.6776" stroke="black" stroke-width="2.1945"/>
<path d="M88.2891 40.8574L53.6016 66.9895" stroke="black" stroke-width="2.1945"/>
<circle cx="100.982" cy="14.7828" r="9.0211" fill="#FFC107"/>
<circle cx="51.7691" cy="67.1343" r="6.72218" fill="#2196F4"/>
<circle cx="49.6176" cy="4.85975" r="4.85975" fill="#F34335"/>
<circle cx="35.0629" cy="42.3988" r="4.85975" fill="#9C27AF"/>
<circle cx="4.85975" cy="55.3773" r="4.85975" fill="#F34335"/>
<circle cx="91.2894" cy="39.3148" r="4.85975" fill="#8BC349"/>
</svg>