<svg width="748" height="230" viewBox="0 0 748 230" fill="none" xmlns="http://www.w3.org/2000/svg">
<g clip-path="url(#clip0_777_1129)">
<path d="M368.174 81.5342C365.3 81.5342 363.099 83.7395 363.099 86.7087L363.194 126.762L331.189 84.8875C329.558 82.6865 328.41 81.5342 326.109 81.5342C323.33 81.5342 321.125 83.7395 321.125 86.5188V141.712C321.125 144.681 323.33 146.887 326.204 146.887C329.079 146.887 331.284 144.686 331.284 141.712V101.563L363.483 144.012C364.826 145.739 366.168 146.887 368.274 146.887C371.148 146.887 373.254 144.686 373.254 141.902V86.7087C373.25 83.7395 371.049 81.5342 368.174 81.5342Z" fill="black"/>
<path d="M489.253 136.728H464.433V86.7087C464.433 83.7395 462.327 81.5342 459.353 81.5342C456.386 81.5342 454.273 83.8344 454.273 86.7087V140.564C454.273 143.633 456.481 145.834 459.544 145.834H489.25C491.934 145.834 493.847 143.823 493.847 141.237C493.853 138.644 491.938 136.728 489.253 136.728Z" fill="black"/>
<path d="M528.708 81.5342C510.12 81.5342 495.555 95.9053 495.555 114.208C495.555 132.511 510.12 146.883 528.708 146.883C547.301 146.883 561.959 132.511 561.959 114.208C561.959 96.0046 547.301 81.5342 528.708 81.5342ZM528.806 137.591C515.68 137.591 506.099 127.721 506.099 114.113C506.099 100.7 515.68 90.8302 528.806 90.8302C541.841 90.8302 551.517 100.795 551.517 114.113C551.514 127.626 541.837 137.591 528.806 137.591Z" fill="black"/>
<path d="M627.969 112.365H612.943C610.068 112.365 607.959 114.376 607.959 116.866C607.959 119.356 610.065 121.367 612.943 121.367H622.991V128.653C618.962 134.401 611.967 137.754 604.111 137.754C590.505 137.754 580.828 127.884 580.828 114.087C580.828 100.574 590.314 90.8037 603.539 90.8037C610.439 90.8037 615.611 93.294 620.691 98.7578C622.32 100.579 623.467 101.153 625.097 101.153C627.781 101.153 629.792 98.9474 629.792 96.5524C629.792 95.0203 629.023 93.5831 627.397 91.8568C622.127 85.5301 612.927 81.5078 603.628 81.5078C584.847 81.5078 570.281 95.6893 570.281 114.182C570.281 132.675 584.847 146.856 603.628 146.856C614.747 146.856 625.57 141.487 631.419 133.059C632.661 131.142 633.144 129.222 633.144 126.827V117.626C633.147 114.57 630.942 112.365 627.969 112.365Z" fill="black"/>
<path d="M288.067 85.5607C286.915 83.1008 284.446 81.5342 281.728 81.5342C279.013 81.5342 276.54 83.1051 275.388 85.5607L252.303 139.123C251.729 140.275 251.539 141.233 251.539 141.997C251.539 144.681 253.74 146.883 256.52 146.883C258.82 146.883 260.451 145.635 261.31 143.339L266.031 131.924H297.368L302.072 143.339C302.935 145.635 304.562 146.883 306.862 146.883C309.641 146.883 311.842 144.681 311.842 141.997C311.842 141.233 311.653 140.271 311.079 139.123L288.067 85.5607ZM270.015 122.3L281.714 94.0065V93.9592L293.401 122.3H270.015Z" fill="black"/>
<path d="M419.856 85.5607C418.704 83.1008 416.235 81.5342 413.517 81.5342C410.802 81.5342 408.329 83.1051 407.177 85.5607L384.092 139.123C383.518 140.275 383.328 141.233 383.328 141.997C383.328 144.681 385.529 146.883 388.309 146.883C390.609 146.883 392.24 145.635 393.099 143.339L397.82 131.924H429.157L433.861 143.339C434.724 145.635 436.351 146.883 438.651 146.883C441.43 146.883 443.632 144.681 443.632 141.997C443.632 141.233 443.441 140.271 442.866 139.123L419.856 85.5607ZM401.804 122.3L413.503 94.0065V93.9592L425.19 122.3H401.804Z" fill="black"/>
<path d="M207.84 77.3075L177.907 60.0231C170.92 55.9923 162.245 55.9923 155.258 60.0231L125.324 77.3075C118.337 81.3426 114 88.8563 114 96.9224V131.491C114 139.557 118.342 147.071 125.324 151.106L155.258 168.386C158.749 170.401 162.668 171.411 166.582 171.411C170.497 171.411 174.415 170.401 177.907 168.386L207.84 151.106C214.827 147.071 219.165 139.557 219.165 131.491V96.9224C219.169 88.8606 214.827 81.3426 207.84 77.3075ZM209.174 131.491C209.174 135.996 206.748 140.196 202.843 142.453L172.909 159.733C169.008 161.986 164.157 161.986 160.251 159.733L130.318 142.453C126.412 140.2 123.987 135.996 123.987 131.491V96.9224C123.987 92.4167 126.412 88.2175 130.318 85.9604L160.251 68.6761C162.202 67.5497 164.39 66.9843 166.578 66.9843C168.766 66.9843 170.954 67.5497 172.905 68.6761L202.838 85.9604C206.744 88.2132 209.17 92.4167 209.17 96.9224V131.491H209.174Z" fill="url(#paint0_linear_777_1129)"/>
<path d="M190.919 94.1276L163.6 109.966C161.943 110.924 161.063 112.685 161.128 114.476C161.123 114.562 161.102 114.64 161.102 114.726V136.598C161.102 139.356 163.337 141.596 166.099 141.596C168.857 141.596 171.097 139.36 171.097 136.598V117.186L195.916 102.789C198.307 101.408 199.123 98.3527 197.746 95.9617C196.365 93.5667 193.305 92.7466 190.919 94.1276Z" fill="url(#paint1_linear_777_1129)"/>
</g>
<defs>
<linearGradient id="paint0_linear_777_1129" x1="126.239" y1="70.1668" x2="166.6" y2="114.227" gradientUnits="userSpaceOnUse">
<stop offset="0.1249" stop-color="#D274F7"/>
<stop offset="1" stop-color="#9A74F7"/>
</linearGradient>
<linearGradient id="paint1_linear_777_1129" x1="128.715" y1="61.8026" x2="171.311" y2="108.303" gradientUnits="userSpaceOnUse">
<stop offset="0.1249" stop-color="#D274F7"/>
<stop offset="1" stop-color="#9A74F7"/>
</linearGradient>
<clipPath id="clip0_777_1129">
<rect width="519.143" height="115" fill="white" transform="translate(114 57)"/>
</clipPath>
</defs>
</svg>
