<svg width="748" height="230" viewBox="0 0 748 230" fill="none" xmlns="http://www.w3.org/2000/svg">
<path d="M91.2734 86.5598V144.01C91.2734 147.531 93.3219 151.053 96.2681 152.802L146.099 181.527C149.322 183.276 153.143 183.276 156.365 181.527L206.196 152.802C209.419 151.053 211.191 147.531 211.191 144.01V86.5598C211.191 83.0382 209.142 79.5166 206.196 77.7674L156.342 49.0424C153.12 47.2931 149.299 47.2931 146.076 49.0424L96.2451 77.7674C93.0227 79.5166 91.2734 83.0382 91.2734 86.5598Z" fill="#213147"/>
<path d="M162.213 126.423L155.17 145.78C154.871 146.356 154.871 146.954 155.17 147.53L167.484 180.95L181.547 172.733L164.538 126.423C164.261 125.25 162.788 125.25 162.213 126.423Z" fill="#12AAFF"/>
<path d="M176.279 93.6011C175.98 92.4272 174.53 92.4272 173.932 93.6011L166.888 112.958C166.589 113.534 166.589 114.132 166.888 114.707L186.821 169.533L200.884 161.316L176.279 93.6011Z" fill="#12AAFF"/>
<path d="M151.068 51.0916C151.368 51.0916 151.644 51.0916 151.943 51.3908L205.871 82.4635C206.447 82.7627 206.746 83.3381 206.746 84.2128V146.358C206.746 146.934 206.447 147.831 205.871 148.107L151.943 179.18C151.644 179.479 151.368 179.479 151.068 179.479C150.769 179.479 150.493 179.479 150.194 179.18L96.2655 148.107C95.6901 147.808 95.3908 147.233 95.3908 146.358V84.2128C95.3908 83.6374 95.6901 82.7397 96.2655 82.4635L150.194 51.3908C150.47 51.0916 150.769 51.0916 151.068 51.0916ZM151.068 42C149.02 42 147.248 42.5754 145.498 43.4731L91.5701 74.5457C88.0485 76.5942 86 80.1158 86 84.2128V146.358C86 150.179 88.0485 153.977 91.5701 156.025L145.498 187.098C147.248 187.972 149.02 188.571 151.068 188.571C153.117 188.571 154.889 187.995 156.639 187.098L210.567 156.025C214.088 153.977 216.137 150.455 216.137 146.358V84.2128C216.137 80.392 214.088 76.5942 210.567 74.5457L156.915 43.4731C155.165 42.5984 153.393 42 151.345 42H151.068Z" fill="#9DCCED"/>
<path d="M115.594 169.511L120.565 156.023L130.532 164.24L121.164 173.033L115.594 169.511Z" fill="#213147"/>
<path d="M146.677 79.8154H132.89C132.016 79.8154 130.842 80.3909 130.543 81.2885L101.242 161.594L115.305 169.811L147.552 81.5647C147.851 80.6901 147.253 79.8154 146.378 79.8154H146.677Z" fill="white"/>
<path d="M170.415 79.8153H156.628C155.753 79.8153 154.579 80.3907 154.28 81.2883L120.883 172.734L134.946 180.951L171.29 81.2883C171.589 80.4137 170.99 79.5391 170.116 79.5391L170.415 79.8153Z" fill="white"/>
<path d="M274.184 96.5264C275.657 96.5264 276.831 96.8256 277.705 97.401C278.58 97.9764 279.455 99.1503 280.352 100.623L298.236 132.87C298.536 133.169 298.536 133.445 298.236 133.745C298.236 134.044 297.937 134.044 297.362 134.044H290.618C290.042 134.044 289.743 133.745 289.444 133.468L285.6 126.425H260.397L256.576 133.468C256.277 134.044 256.001 134.044 255.402 134.044H248.359C247.784 134.044 247.484 134.044 247.484 133.745C247.484 133.445 247.484 133.169 247.484 132.87L265.069 100.623C265.944 98.8741 266.818 97.9764 267.716 97.401C268.614 96.8256 269.465 96.5264 270.639 96.5264H273.862H274.184ZM263.619 120.28H282.079L273.585 104.444C273.286 104.145 273.286 104.145 273.01 104.145H272.711C272.412 104.145 272.135 104.145 272.135 104.444L263.619 120.28Z" fill="#213147"/>
<path d="M337.209 96.5264C341.306 96.5264 344.253 97.401 346.002 99.4495C347.751 101.199 348.649 104.145 348.649 107.666V110.59C348.649 113.812 348.073 116.16 346.9 117.909C345.726 119.658 343.677 120.832 340.754 121.431L349.846 132.87C350.145 133.169 350.145 133.445 350.145 133.745C350.145 134.044 349.846 134.32 349.27 134.32H342.227C341.652 134.32 341.352 134.32 341.352 134.021C341.053 134.021 341.053 133.721 340.777 133.445L332.284 122.305H314.998V133.146C314.998 134.021 314.699 134.32 313.824 134.32H307.955C307.08 134.32 306.781 134.021 306.781 133.146V98.2756C306.781 97.1018 307.357 96.5264 308.531 96.5264H337.555H337.209ZM314.929 115.86H335.437C337.186 115.86 338.659 115.561 339.258 114.687C340.133 113.812 340.432 112.638 340.432 111.165V108.817C340.432 107.068 340.133 105.894 339.258 105.296C338.383 104.421 337.209 104.122 335.437 104.122H315.505C314.929 104.122 314.929 104.421 314.929 104.697V115.86Z" fill="#213147"/>
<path d="M393.781 96.5264C397.602 96.5264 400.226 97.401 401.699 98.8741C403.172 100.347 404.046 102.695 404.046 105.618V108.265C404.046 111.188 402.873 113.536 400.525 115.009C402.873 116.482 404.346 118.83 404.346 122.052V125.274C404.346 126.747 404.046 127.921 403.77 129.095C403.494 130.269 402.896 131.144 402.297 132.018C401.423 132.893 400.548 133.491 399.374 133.768C398.2 134.067 396.727 134.343 394.978 134.343H363.031C361.857 134.343 361.281 133.768 361.281 132.594V98.2987C361.281 97.1248 361.857 96.5494 363.031 96.5494H394.103H393.781V96.5264ZM369.452 112.063H391.433C393.183 112.063 394.356 111.763 394.955 111.188C395.553 110.613 395.829 110.014 395.829 108.84V107.091C395.829 105.917 395.53 105.043 394.955 104.743C394.379 104.168 393.206 103.869 392.032 103.869H370.051C369.475 103.869 369.475 104.168 369.475 104.444V112.063H369.452ZM369.452 117.932V125.85C369.452 126.425 369.751 126.425 370.028 126.425H392.009C393.482 126.425 394.356 126.126 394.932 125.551C395.507 124.975 395.806 124.077 395.806 123.203V121.154C395.806 119.98 395.507 119.106 394.932 118.507C394.356 117.909 393.183 117.633 391.111 117.633H369.153L369.452 117.932Z" fill="#213147"/>
<path d="M424.254 96.5264C425.129 96.5264 425.428 96.8256 425.428 97.7002V132.87C425.428 133.745 425.129 134.044 424.254 134.044H418.385C417.51 134.044 417.211 133.745 417.211 132.87V97.7002C417.211 96.8256 417.51 96.5264 418.385 96.5264H424.254Z" fill="#213147"/>
<path d="M480.832 96.5264C481.706 96.5264 482.005 96.8256 482.005 97.7002V102.971C482.005 103.846 481.706 104.145 480.832 104.145H463.822V132.87C463.822 133.745 463.523 134.044 462.648 134.044H456.779C455.904 134.044 455.605 133.745 455.605 132.87V104.145H438.596C437.721 104.145 437.422 103.846 437.422 102.971V97.7002C437.422 96.8256 437.721 96.5264 438.596 96.5264H480.509H480.832Z" fill="#213147"/>
<path d="M523.334 96.5264C527.431 96.5264 530.378 97.401 532.127 99.4495C533.876 101.199 534.774 104.145 534.774 107.666V110.59C534.774 113.812 534.198 116.16 533.025 117.909C531.851 119.658 529.802 120.832 526.879 121.431L535.971 132.87C536.27 133.169 536.27 133.445 536.27 133.745C536.27 134.044 535.971 134.32 535.395 134.32H528.352C527.777 134.32 527.477 134.32 527.477 134.021C527.178 134.021 527.178 133.721 526.902 133.445L518.409 122.305H501.123V133.146C501.123 134.021 500.824 134.32 499.949 134.32H494.08C493.205 134.32 492.906 134.021 492.906 133.146V98.2756C492.906 97.1018 493.482 96.5264 494.656 96.5264H523.68H523.334ZM501.054 115.86H521.562C523.311 115.86 524.785 115.561 525.383 114.687C526.258 113.812 526.557 112.638 526.557 111.165V108.817C526.557 107.068 526.258 105.894 525.383 105.296C524.508 104.421 523.334 104.122 521.562 104.122H501.63C501.054 104.122 501.054 104.421 501.054 104.697V115.86Z" fill="#213147"/>
<path d="M553.54 96.5264C554.415 96.5264 554.714 96.8256 554.714 97.7002V119.106C554.714 120.579 554.714 121.753 555.014 122.627C555.313 123.502 555.589 124.377 556.187 124.975C556.786 125.574 557.361 125.85 558.236 126.149C559.11 126.448 560.284 126.448 561.757 126.448H576.718C578.191 126.448 579.365 126.448 580.24 126.149C581.115 125.85 581.989 125.574 582.288 124.975C582.864 124.4 583.163 123.502 583.462 122.627C583.761 121.753 583.761 120.579 583.761 119.106V97.7002C583.761 96.8256 584.061 96.5264 584.935 96.5264H590.805C591.679 96.5264 591.978 96.8256 591.978 97.7002V119.98C591.978 122.627 591.679 124.676 591.104 126.425C590.528 128.174 589.631 129.648 588.457 130.821C587.283 131.995 585.81 132.87 583.761 133.169C581.713 133.745 579.664 134.044 576.718 134.044H561.182C558.535 134.044 556.187 133.745 554.139 133.169C552.39 132.594 550.617 131.696 549.443 130.821C548.27 129.648 547.395 128.174 546.797 126.425C546.221 124.676 545.922 122.328 545.922 119.98V97.7002C545.922 96.8256 546.221 96.5264 547.096 96.5264H552.965H553.54Z" fill="#213147"/>
<path d="M615.078 96.5264C615.953 96.5264 616.551 96.5264 617.126 96.8256C617.702 96.8256 618.3 97.1248 618.6 97.401C618.899 97.7002 619.474 97.9764 619.773 98.5749C620.073 99.1503 620.349 99.7487 620.947 100.623L632.087 126.425C632.387 126.724 632.387 127.001 632.962 127.001H633.537C633.837 127.001 634.113 126.701 634.412 126.425L645.552 100.623C645.851 99.7487 646.128 99.1503 646.726 98.5749C647.025 97.9994 647.302 97.7002 647.9 97.401C648.199 97.1018 648.775 96.8256 649.373 96.8256C649.971 96.8256 650.547 96.5264 651.421 96.5264H657.291C659.04 96.5264 660.513 96.8256 661.112 97.7002C661.687 98.5749 661.986 100.048 661.986 102.096V132.87C661.986 133.745 661.687 134.044 660.812 134.044H655.242C654.368 134.044 654.068 133.745 654.068 132.87V104.743C654.068 104.444 653.769 104.168 653.769 104.168H653.194C652.895 104.168 652.618 104.467 652.618 104.467L641.777 128.497C641.478 129.371 640.903 130.246 640.304 130.844C639.706 131.443 639.43 132.018 638.831 132.594C638.256 132.893 637.657 133.468 637.082 133.468C636.507 133.768 635.609 133.768 634.734 133.768H632.087C631.213 133.768 630.338 133.768 629.74 133.468C629.141 133.169 628.566 132.893 627.99 132.594C627.415 132.294 627.116 131.719 626.517 130.844C625.942 130.269 625.643 129.371 625.044 128.497L614.203 104.467C614.203 104.168 613.904 104.168 613.628 104.168H613.053C612.753 104.168 612.753 104.467 612.753 104.743V132.893C612.753 133.768 612.454 134.067 611.579 134.067H605.986C605.112 134.067 604.812 133.768 604.812 132.893V102.096C604.812 100.048 605.112 98.5749 605.687 97.7002C606.263 96.8256 607.736 96.5264 609.508 96.5264H615.377H615.078Z" fill="#213147"/>
</svg>
