<svg width="748" height="230" viewBox="0 0 748 230" fill="none" xmlns="http://www.w3.org/2000/svg">
<g clip-path="url(#clip0_777_1099)">
<mask id="mask0_777_1099" style="mask-type:luminance" maskUnits="userSpaceOnUse" x="157" y="49" width="390" height="150">
<path d="M546.89 49.1826H157.117V198.855H546.89V49.1826Z" fill="white"/>
</mask>
<g mask="url(#mask0_777_1099)">
<path d="M227.669 198.853C231.743 198.856 235.73 197.677 239.145 195.461C242.56 193.244 245.256 190.085 246.905 186.368C247.087 185.955 247.163 185.503 247.125 185.054C247.088 184.604 246.939 184.171 246.691 183.793C246.444 183.416 246.106 183.106 245.707 182.892C245.309 182.678 244.864 182.566 244.412 182.567H210.941C210.489 182.566 210.044 182.678 209.646 182.892C209.248 183.106 208.91 183.416 208.662 183.793C208.415 184.171 208.266 184.604 208.228 185.054C208.191 185.503 208.266 185.955 208.448 186.368C210.098 190.082 212.792 193.238 216.204 195.454C219.615 197.67 223.598 198.851 227.669 198.853Z" fill="url(#paint0_linear_777_1099)"/>
<path d="M279.026 162.359C277.732 162.359 276.45 162.105 275.255 161.611C274.059 161.116 272.973 160.391 272.059 159.478C271.144 158.564 270.419 157.48 269.924 156.287C269.43 155.094 269.176 153.815 269.177 152.524V117.825C269.177 99.6507 257.689 83.6878 241.392 77.8368C240.572 77.5499 239.821 77.0959 239.186 76.5037C238.552 75.9115 238.048 75.194 237.706 74.3969C236.892 72.4126 235.506 70.7143 233.723 69.5177C231.941 68.321 229.842 67.6799 227.693 67.6758C225.545 67.6717 223.443 68.3047 221.656 69.4946C219.869 70.6844 218.476 72.3774 217.654 74.3585C217.321 75.1454 216.825 75.8535 216.199 76.4368C215.573 77.0201 214.832 77.4657 214.023 77.7446C205.888 80.5684 198.836 85.8493 193.847 92.8543C188.857 99.859 186.176 108.24 186.176 116.835V152.516C186.18 155.113 185.154 157.606 183.321 159.451C181.489 161.295 178.999 162.341 176.396 162.359C175.783 162.352 175.175 162.466 174.606 162.693C174.037 162.921 173.519 163.259 173.081 163.687C172.643 164.115 172.293 164.625 172.053 165.187C171.813 165.75 171.686 166.355 171.68 166.966C171.68 168.188 172.166 169.36 173.032 170.224C173.898 171.088 175.072 171.573 176.296 171.573H279.003C280.227 171.573 281.401 171.088 282.267 170.224C283.133 169.36 283.619 168.188 283.619 166.966C283.619 165.748 283.136 164.58 282.275 163.717C281.415 162.853 280.246 162.365 279.026 162.359Z" fill="url(#paint1_linear_777_1099)"/>
<path d="M257.411 69.1699C263.082 70.4206 268.211 73.4278 272.067 77.762C275.922 82.0963 278.306 87.5353 278.878 93.3027C278.937 93.9298 279.242 94.5085 279.728 94.9108C280.213 95.3133 280.839 95.507 281.468 95.4486C282.096 95.3906 282.676 95.086 283.079 94.6014C283.483 94.1169 283.676 93.4923 283.618 92.8649C282.98 86.081 280.193 79.6763 275.66 74.5802C271.127 69.4842 265.086 65.9619 258.411 64.5245C258.247 64.4877 258.079 64.4697 257.911 64.4707C257.328 64.4798 256.769 64.7012 256.339 65.0934C255.909 65.4855 255.638 66.0212 255.576 66.5993C255.514 67.1775 255.667 67.7581 256.005 68.2317C256.343 68.7052 256.843 69.0389 257.411 69.1699Z" fill="url(#paint2_linear_777_1099)"/>
<path d="M260.093 53.882C268.923 55.8213 276.913 60.4984 282.918 67.2438C288.923 73.9893 292.636 82.4574 293.525 91.4365C293.553 91.7467 293.642 92.0486 293.788 92.3245C293.933 92.6002 294.131 92.845 294.372 93.0439C294.612 93.2428 294.889 93.3928 295.188 93.4845C295.486 93.5762 295.8 93.6083 296.111 93.5787C296.422 93.5518 296.726 93.4633 297.003 93.3189C297.28 93.1742 297.526 92.9765 297.727 92.7368C297.927 92.4967 298.077 92.2198 298.17 91.9214C298.262 91.6233 298.295 91.3096 298.265 90.9987C297.323 81.003 293.216 71.5667 286.537 64.0577C279.859 56.5487 270.958 51.3574 261.124 49.2366C260.959 49.204 260.792 49.186 260.624 49.1829C260.031 49.1741 259.456 49.3869 259.012 49.7795C258.568 50.172 258.287 50.716 258.224 51.3046C258.162 51.8932 258.322 52.484 258.673 52.9608C259.024 53.4377 259.542 53.7662 260.124 53.882H260.093Z" fill="url(#paint3_linear_777_1099)"/>
<path d="M197.928 69.1701C198.509 69.0543 199.027 68.7258 199.378 68.2489C199.729 67.7721 199.89 67.1813 199.827 66.5927C199.764 66.0041 199.483 65.4601 199.039 65.0676C198.596 64.675 198.021 64.4622 197.428 64.471C197.259 64.4703 197.091 64.4883 196.927 64.5247C190.253 65.9621 184.211 69.4844 179.678 74.5805C175.146 79.6765 172.358 86.0813 171.72 92.8652C171.665 93.4929 171.861 94.1172 172.266 94.6005C172.463 94.8425 172.707 95.0423 172.984 95.1873C173.26 95.3326 173.563 95.4203 173.875 95.4452C174.186 95.4758 174.501 95.4446 174.8 95.3532C175.099 95.2619 175.377 95.1125 175.619 94.9132C175.86 94.714 176.059 94.4692 176.204 94.1929C176.35 93.9164 176.44 93.6139 176.468 93.303C177.037 87.5359 179.419 82.0963 183.274 77.7617C187.128 73.4273 192.257 70.42 197.928 69.1701Z" fill="url(#paint4_linear_777_1099)"/>
<path d="M195.262 53.882C195.844 53.7662 196.361 53.4377 196.713 52.9608C197.064 52.484 197.224 51.8932 197.162 51.3046C197.099 50.716 196.818 50.172 196.374 49.7795C195.93 49.3869 195.355 49.1741 194.762 49.1829C194.597 49.1856 194.432 49.2036 194.27 49.2366C184.436 51.3574 175.535 56.5487 168.856 64.0577C162.178 71.5667 158.07 81.003 157.128 90.9987C157.098 91.3093 157.13 91.6226 157.222 91.9207C157.315 92.2188 157.466 92.4951 157.667 92.7339C157.864 92.9762 158.108 93.1758 158.384 93.3208C158.661 93.4661 158.964 93.5537 159.275 93.5787C159.587 93.6092 159.901 93.578 160.201 93.487C160.5 93.3956 160.778 93.246 161.019 93.0467C161.26 92.8478 161.459 92.6027 161.605 92.3264C161.751 92.0501 161.84 91.7477 161.868 91.4365C162.755 82.4627 166.463 73.9983 172.46 67.2534C178.458 60.5086 186.439 55.8284 195.262 53.882Z" fill="url(#paint5_linear_777_1099)"/>
<path d="M526.466 103.114C523.759 103.087 521.074 103.595 518.567 104.609C516.057 105.622 513.775 107.121 511.848 109.018V78.9426C511.848 78.8915 511.838 78.841 511.817 78.7939C511.798 78.7468 511.77 78.7041 511.732 78.6684C511.695 78.6326 511.651 78.6045 511.605 78.5856C511.558 78.5668 511.505 78.5576 511.455 78.5587H499.799C499.746 78.5576 499.696 78.5668 499.649 78.5856C499.6 78.6045 499.559 78.6326 499.522 78.6684C499.484 78.7041 499.456 78.7468 499.434 78.7939C499.416 78.841 499.406 78.8915 499.406 78.9426V160.133C499.406 160.184 499.416 160.234 499.434 160.281C499.456 160.328 499.484 160.371 499.522 160.407C499.559 160.443 499.6 160.471 499.649 160.49C499.696 160.509 499.746 160.518 499.799 160.517H511.455C511.505 160.518 511.558 160.509 511.605 160.49C511.651 160.471 511.695 160.443 511.732 160.407C511.77 160.371 511.798 160.328 511.817 160.281C511.838 160.234 511.848 160.184 511.848 160.133V127.177C511.842 124.251 512.952 121.433 514.95 119.293C516.952 117.154 519.693 115.855 522.621 115.66C524.149 115.575 525.683 115.8 527.121 116.324C528.561 116.847 529.88 117.656 531 118.703C532.116 119.75 533.008 121.012 533.622 122.413C534.236 123.814 534.558 125.326 534.57 126.855V160.133C534.57 160.235 534.611 160.332 534.682 160.404C534.754 160.476 534.854 160.517 534.954 160.517H546.497C546.547 160.518 546.597 160.509 546.647 160.49C546.693 160.471 546.737 160.443 546.771 160.407C546.809 160.371 546.84 160.328 546.859 160.281C546.877 160.234 546.89 160.184 546.89 160.133V123.814C546.899 118.377 544.76 113.154 540.937 109.279C537.114 105.404 531.916 103.189 526.466 103.114Z" fill="black"/>
<path d="M438.444 101.005H426.841C426.738 101.005 426.639 101.045 426.566 101.117C426.492 101.189 426.45 101.286 426.448 101.389V137.477C426.436 138.96 426.122 140.425 425.527 141.784C424.931 143.142 424.065 144.366 422.982 145.382C421.899 146.397 420.621 147.183 419.225 147.692C417.829 148.2 416.344 148.422 414.86 148.341C412.013 148.165 409.342 146.909 407.394 144.83C405.445 142.752 404.367 140.008 404.38 137.162V101.389C404.378 101.286 404.336 101.189 404.263 101.117C404.189 101.045 404.091 101.005 403.988 101.005H392.385C392.283 101.005 392.185 101.045 392.113 101.117C392.041 101.189 392 101.287 392 101.389V136.947C391.988 143.045 394.348 148.91 398.584 153.306C402.82 157.701 408.6 160.285 414.706 160.512C417.817 160.62 420.917 160.107 423.825 159.001C426.734 157.895 429.39 156.219 431.639 154.072C433.888 151.925 435.684 149.351 436.92 146.501C438.156 143.65 438.807 140.582 438.836 137.477V101.389C438.835 101.286 438.792 101.189 438.719 101.117C438.646 101.045 438.547 101.005 438.444 101.005Z" fill="black"/>
<path d="M359.856 78.665H330.447C330.232 78.665 330.062 78.7418 330.062 78.9568L330.163 160.347C330.163 160.398 330.173 160.448 330.193 160.495C330.212 160.543 330.241 160.585 330.278 160.621C330.314 160.657 330.358 160.685 330.405 160.703C330.453 160.722 330.504 160.732 330.555 160.731H342.097C342.199 160.731 342.297 160.69 342.369 160.618C342.441 160.546 342.482 160.448 342.482 160.347V127.568H359.91C373.398 127.568 383.963 116.818 383.963 103.113C383.963 89.4068 373.344 78.665 359.856 78.665ZM359.648 115.375H343.128C342.924 115.375 342.728 115.294 342.584 115.15C342.439 115.006 342.358 114.811 342.358 114.607V101.585C342.35 99.6273 341.685 97.7289 340.471 96.1914C339.256 94.6541 337.562 93.5659 335.657 93.1003C335.57 93.0794 335.494 93.0302 335.439 92.9603C335.385 92.8908 335.356 92.8047 335.357 92.7162V91.2191C335.357 91.1131 335.399 91.0115 335.474 90.9366C335.549 90.8618 335.651 90.8197 335.757 90.8197H359.833C366.104 90.8197 370.936 95.3654 371.721 101.569C371.979 103.289 371.86 105.044 371.373 106.713C370.885 108.383 370.039 109.927 368.895 111.238C367.751 112.549 366.335 113.597 364.745 114.309C363.155 115.02 361.429 115.379 359.686 115.359L359.648 115.375Z" fill="black"/>
<path d="M446.684 147.534C448.915 152.417 454.64 160.587 468.02 160.587C483.311 160.587 490.149 151.58 490.149 142.65C490.149 132.853 483.657 126.948 470.314 124.584C463.534 123.447 460.634 121.305 460.634 117.435C460.634 113.826 463.858 111.4 468.651 111.4C472.974 111.4 476.616 113.818 477.932 117.542C477.948 117.584 477.969 117.621 478.001 117.653C478.032 117.685 478.066 117.71 478.107 117.727C478.188 117.758 478.275 117.758 478.353 117.727L487.948 113.45C488.022 113.418 488.079 113.359 488.11 113.286C488.138 113.213 488.138 113.132 488.11 113.058C485.172 105.495 477.845 100.98 468.528 100.98C455.332 100.98 448.423 109.319 448.423 117.55C448.423 127.271 454.786 133.145 467.874 135.487C474.839 136.892 477.807 139.103 477.807 142.889C477.807 146.981 474.2 149.423 468.143 149.423C465.896 149.43 463.692 148.804 461.786 147.615C459.88 146.426 458.349 144.724 457.371 142.704C457.345 142.652 457.304 142.607 457.254 142.576C457.203 142.545 457.146 142.528 457.086 142.527C457.046 142.517 457.004 142.517 456.964 142.527L446.845 147.081C446.8 147.094 446.759 147.118 446.726 147.151C446.692 147.183 446.666 147.223 446.65 147.267C446.635 147.311 446.629 147.358 446.635 147.404C446.641 147.451 446.657 147.495 446.684 147.534Z" fill="black"/>
</g>
</g>
<defs>
<linearGradient id="paint0_linear_777_1099" x1="250.168" y1="147.232" x2="222.861" y2="193.751" gradientUnits="userSpaceOnUse">
<stop stop-color="#FF94A6"/>
<stop offset="0.32" stop-color="#E03DC1"/>
<stop offset="1" stop-color="#8247E5"/>
</linearGradient>
<linearGradient id="paint1_linear_777_1099" x1="263.368" y1="95.7502" x2="205.691" y2="177.877" gradientUnits="userSpaceOnUse">
<stop stop-color="#FF94A6"/>
<stop offset="0.32" stop-color="#E03DC1"/>
<stop offset="1" stop-color="#8247E5"/>
</linearGradient>
<linearGradient id="paint2_linear_777_1099" x1="309.841" y1="53.2989" x2="169.698" y2="146.517" gradientUnits="userSpaceOnUse">
<stop stop-color="#FF94A6"/>
<stop offset="0.32" stop-color="#E03DC1"/>
<stop offset="1" stop-color="#8247E5"/>
</linearGradient>
<linearGradient id="paint3_linear_777_1099" x1="308.537" y1="51.3174" x2="168.386" y2="144.536" gradientUnits="userSpaceOnUse">
<stop stop-color="#FF94A6"/>
<stop offset="0.32" stop-color="#E03DC1"/>
<stop offset="1" stop-color="#8247E5"/>
</linearGradient>
<linearGradient id="paint4_linear_777_1099" x1="283.636" y1="13.9094" x2="143.486" y2="107.128" gradientUnits="userSpaceOnUse">
<stop stop-color="#FF94A6"/>
<stop offset="0.32" stop-color="#E03DC1"/>
<stop offset="1" stop-color="#8247E5"/>
</linearGradient>
<linearGradient id="paint5_linear_777_1099" x1="276.747" y1="3.54305" x2="136.65" y2="96.7383" gradientUnits="userSpaceOnUse">
<stop stop-color="#FF94A6"/>
<stop offset="0.32" stop-color="#E03DC1"/>
<stop offset="1" stop-color="#8247E5"/>
</linearGradient>
<clipPath id="clip0_777_1099">
<rect width="392" height="149.673" fill="white" transform="translate(156 49.1816)"/>
</clipPath>
</defs>
</svg>
