<svg width="748" height="230" viewBox="0 0 748 230" fill="none" xmlns="http://www.w3.org/2000/svg">
<g clip-path="url(#clip0_499_1526)">
<path d="M413.978 49.6748H341.383V64.1938H413.978V49.6748Z" fill="#FFD900"/>
<path d="M337.414 116.333V47.3682" stroke="black" stroke-width="7.91947"/>
<path d="M392.862 46.0469H340.066" stroke="black" stroke-width="7.91947"/>
<path d="M388.907 79.0466V49.1836" stroke="black" stroke-width="7.91947"/>
<path d="M394.844 42.0908V32.3564" stroke="black" stroke-width="9.23937"/>
<path d="M351.946 93.7259V79.042" stroke="black" stroke-width="7.91947"/>
<path d="M351.946 108.417V93.7334" stroke="black" stroke-width="7.91947"/>
<path d="M355.906 96.2061H406.067" stroke="black" stroke-width="7.91947"/>
<path d="M362.5 89.6006H383.62" stroke="black" stroke-width="7.91947"/>
<path d="M370.418 83.0088H383.617" stroke="black" stroke-width="7.91947"/>
<path d="M379.664 96.2061H399.462" stroke="#FFD900" stroke-width="7.91947"/>
<path d="M379.664 96.2061H399.462" stroke="#FFD900" stroke-width="7.91947"/>
<path d="M395.496 100.822V79.042" stroke="black" stroke-width="7.91947"/>
<path d="M387.578 100.163V79.042" stroke="#FFD900" stroke-width="7.91947"/>
<path d="M329.506 130.521V107.918" stroke="black" stroke-width="7.91947"/>
<path d="M317.793 126.562H325.7" stroke="black" stroke-width="7.91947"/>
<path d="M308.385 152.958V138.438" stroke="black" stroke-width="7.91947"/>
<path d="M322.909 167.48V152.961" stroke="black" stroke-width="7.91947"/>
<path d="M314.991 160.881V146.361" stroke="black" stroke-width="7.91947"/>
<path d="M304.425 134.481H318.944" stroke="black" stroke-width="7.91947"/>
<path d="M318.948 163.521H333.467" stroke="black" stroke-width="7.91947"/>
<path d="M346.666 193.878H363.825" stroke="black" stroke-width="7.91947"/>
<path d="M383.948 193.878H401.107" stroke="black" stroke-width="7.91947"/>
<path d="M378.35 126.562H436.426" stroke="black" stroke-width="7.91947"/>
<path d="M378.35 104.127H436.426" stroke="black" stroke-width="7.91947"/>
<path d="M398.147 178.037H415.306" stroke="black" stroke-width="7.91947"/>
<path d="M355.906 178.037H384.944" stroke="black" stroke-width="7.91947"/>
<path d="M312.351 156.921H326.87" stroke="black" stroke-width="7.91947"/>
<path d="M304.425 148.999H318.944" stroke="black" stroke-width="7.91947"/>
<path d="M345.181 116.165V79.042" stroke="#FFD900" stroke-width="7.91947"/>
<path d="M337.414 167.483V116.171" stroke="#FFD900" stroke-width="7.91947"/>
<path d="M341.383 170.122H413.978" stroke="#171717" stroke-width="7.91947"/>
<path d="M341.383 170.122H413.978" stroke="#FFD900" stroke-width="7.91947"/>
<path d="M340.066 178.037H355.905" stroke="#FFD900" stroke-width="7.91947"/>
<path d="M381.638 178.037H397.477" stroke="#FFD900" stroke-width="7.91947"/>
<path d="M349.309 163.521H421.904" stroke="#FFD900" stroke-width="7.91947"/>
<path d="M326.211 155.599H420.585" stroke="#FFD900" stroke-width="7.91947"/>
<path d="M318.948 148.999H420.581" stroke="#FFD900" stroke-width="7.91947"/>
<path d="M311.685 142.397H420.578" stroke="#FFD900" stroke-width="7.91947"/>
<path d="M318.948 134.481H413.982" stroke="#FFD900" stroke-width="7.91947"/>
<path d="M333.454 128.376H378.333" stroke="#FFD900" stroke-width="7.91947"/>
<path d="M333.454 120.788H378.333" stroke="#FFD900" stroke-width="7.91947"/>
<path d="M333.454 119.966H378.333" stroke="#FFD900" stroke-width="7.91947"/>
<path d="M341.383 112.209H386.261" stroke="#FFD900" stroke-width="7.91947"/>
<path d="M355.906 104.289H378.345" stroke="#FFD900" stroke-width="8.24944"/>
<path d="M355.906 104.289H378.345" stroke="#FFD900" stroke-width="8.24944"/>
<path d="M399.467 31.5293H422.071" stroke="black" stroke-width="7.91947"/>
<path d="M411.336 49.6803V35.4912" stroke="black" stroke-width="7.91947"/>
<path d="M417.933 108.085V48.6895" stroke="black" stroke-width="7.91947"/>
<path d="M318.948 75.082H436.42" stroke="black" stroke-width="7.91947"/>
<path d="M407.389 46.0469H392.87" stroke="#FFD900" stroke-width="7.91947"/>
<path d="M403.424 50.0102V35.4912" stroke="#FFD900" stroke-width="7.91947"/>
<path d="M413.978 56.6055H341.383V71.1244H413.978V56.6055Z" fill="#FFD900"/>
<path d="M337.414 181.998V167.479" stroke="black" stroke-width="7.91947"/>
<path d="M344.026 189.929V174.076" stroke="black" stroke-width="7.91947"/>
<path d="M367.778 189.929V174.076" stroke="black" stroke-width="7.91947"/>
<path d="M380.981 189.929V174.076" stroke="black" stroke-width="7.91947"/>
<path d="M403.424 189.929V174.076" stroke="black" stroke-width="7.91947"/>
<path d="M417.933 175.413V159.561" stroke="black" stroke-width="7.91947"/>
<path d="M440.371 123.92V106.762" stroke="black" stroke-width="7.91947"/>
<path d="M374.381 123.92V106.762" stroke="black" stroke-width="7.91947"/>
<path d="M425.853 93.5612V79.042" stroke="black" stroke-width="7.91947"/>
<path d="M410.021 100.169V85.6494" stroke="black" stroke-width="7.91947"/>
<path d="M403.424 108.085V93.5654" stroke="black" stroke-width="7.91947"/>
<path d="M345.349 124.75V116.171" stroke="black" stroke-width="7.91947"/>
<path d="M355.906 82.3467H370.426" stroke="#7E7E7E" stroke-width="6.59957"/>
<path d="M359.195 92.2413V79.042" stroke="#7E7E7E" stroke-width="6.59957"/>
<path d="M399.467 82.3467H413.987" stroke="#7E7E7E" stroke-width="6.59957"/>
<path d="M402.755 92.2413V79.042" stroke="#7E7E7E" stroke-width="6.59957"/>
<path d="M345.349 166.157V157.577" stroke="black" stroke-width="7.91947"/>
<path d="M351.946 159.557V142.397" stroke="black" stroke-width="7.91947"/>
<path d="M417.933 138.457V122.604" stroke="black" stroke-width="7.91947"/>
<path d="M424.542 160.878V137.119" stroke="black" stroke-width="7.91947"/>
<path d="M396.833 189.929V174.076" stroke="black" stroke-width="7.91947"/>
<path d="M346.666 185.959H363.825" stroke="#F74402" stroke-width="7.91947"/>
<path d="M383.948 185.959H401.107" stroke="#F74402" stroke-width="7.91947"/>
<path d="M378.35 115.343H436.426" stroke="#F74402" stroke-width="14.519"/>
</g>
<defs>
<clipPath id="clip0_499_1526">
<rect width="171.667" height="171.667" fill="white" transform="translate(288.333 29.334)"/>
</clipPath>
</defs>
</svg>
