<svg width="748" height="230" viewBox="0 0 748 230" fill="none" xmlns="http://www.w3.org/2000/svg">
<path d="M319 199.34V70.5796C319 68.2596 319.295 66.1046 321.52 64.8346C322.36 64.3746 323.41 63.9946 324.33 63.9946C337.26 63.9496 350.235 63.9496 363.165 63.9496H366.02V43.0896C366.02 40.4296 367.365 38.7396 369.67 37.6396C374.585 35.2746 379.415 32.8696 384.325 30.5446C388.145 28.7296 391.925 26.8696 395.825 25.3496C398.81 24.2096 401.54 25.9446 402.59 29.0696C403.43 31.6446 401.96 34.3896 399.315 35.6146C395.2 37.5146 391.215 39.5846 387.14 41.5246C383.82 43.0896 380.465 44.5646 377.02 46.1246V63.9496H418.37C421.9 63.9496 423.96 66.0196 423.96 69.4846C423.96 84.3496 423.915 99.2146 424 114.035C424 116.36 423.075 117.795 421.185 118.975C419.085 120.245 417.115 119.825 415.31 118.68C413.17 117.285 413.085 114.755 413.085 112.475C413 100.735 413.04 88.9946 413.04 77.2546V75.0546H376.94V93.5096C376.94 95.7096 375.47 97.9446 373.66 98.5796C371.015 99.5496 369.21 99.1696 367.53 96.8896C366.78 95.8346 366.105 94.4396 366.105 93.1296C365.935 87.1796 366.02 81.1796 366.02 75.0546H330V132.615H366.02V111.965C366.02 108.67 368.29 106.265 371.395 106.18C374.625 106.14 376.895 108.46 376.935 111.925C376.98 118.425 376.935 124.89 376.935 131.35C376.935 131.775 376.98 132.15 377.02 132.785H418.04C421.94 132.785 423.96 134.815 423.96 138.74V198.71C423.96 202.975 421.945 205 417.575 205H326.265C321.435 205 320.3 204.115 319 199.34Z" fill="#4338CA"/>
</svg>
