<svg width="360" height="360" viewBox="0 0 360 360" fill="none" xmlns="http://www.w3.org/2000/svg">
<path d="M158.099 91.2383L29.7969 235.035" stroke="black" stroke-width="6.5641"/>
<path d="M298.762 121.527L29.7969 235.032" stroke="black" stroke-width="6.5641"/>
<path d="M160.019 271.419L29.4531 235.209" stroke="black" stroke-width="6.5641"/>
<path d="M161.58 89.8438L119.625 198.997" stroke="black" stroke-width="6.5641"/>
<path d="M166.459 268.633L120.5 197.605" stroke="black" stroke-width="6.5641"/>
<path d="M161.234 85.1445L299.112 111.258" stroke="black" stroke-width="6.5641"/>
<path d="M160.883 83.5762L288.141 185.243" stroke="black" stroke-width="6.5641"/>
<path d="M308.513 131.801L287.797 185.768" stroke="black" stroke-width="6.5641"/>
<path d="M163.156 82.3613L170.12 275.947" stroke="black" stroke-width="6.5641"/>
<path d="M303.804 126.578L169.234 275.423" stroke="black" stroke-width="6.5641"/>
<path d="M279.084 192.211L175.328 270.376" stroke="black" stroke-width="6.5641"/>
<circle cx="317.046" cy="114.216" r="26.9836" fill="#FFC107"/>
<circle cx="169.849" cy="270.81" r="20.1071" fill="#2196F4"/>
<circle cx="163.411" cy="84.5363" r="14.5363" fill="#F34335"/>
<circle cx="119.888" cy="196.821" r="14.5363" fill="#9C27AF"/>
<circle cx="29.5363" cy="235.644" r="14.5363" fill="#F34335"/>
<circle cx="288.06" cy="187.597" r="14.5363" fill="#8BC349"/>
</svg>
