<svg width="330" height="221" viewBox="0 0 330 221" fill="none" xmlns="http://www.w3.org/2000/svg">
<path d="M143.099 21.2383L14.7969 165.035" stroke="black" stroke-width="6.5641"/>
<path d="M283.762 51.5273L14.7969 165.032" stroke="black" stroke-width="6.5641"/>
<path d="M145.019 201.419L14.4531 165.209" stroke="black" stroke-width="6.5641"/>
<path d="M146.58 19.8438L104.625 128.997" stroke="black" stroke-width="6.5641"/>
<path d="M151.459 198.633L105.5 127.605" stroke="black" stroke-width="6.5641"/>
<path d="M146.234 15.1445L284.112 41.2577" stroke="black" stroke-width="6.5641"/>
<path d="M145.883 13.5762L273.141 115.243" stroke="black" stroke-width="6.5641"/>
<path d="M293.513 61.8008L272.797 115.768" stroke="black" stroke-width="6.5641"/>
<path d="M148.156 12.3613L155.12 205.947" stroke="black" stroke-width="6.5641"/>
<path d="M288.804 56.5781L154.234 205.423" stroke="black" stroke-width="6.5641"/>
<path d="M264.084 122.211L160.328 200.376" stroke="black" stroke-width="6.5641"/>
<circle cx="302.046" cy="44.216" r="26.9836" fill="#FFC107"/>
<circle cx="154.849" cy="200.81" r="20.1071" fill="#2196F4"/>
<circle cx="148.411" cy="14.5363" r="14.5363" fill="#F34335"/>
<circle cx="104.888" cy="126.821" r="14.5363" fill="#9C27AF"/>
<circle cx="14.5363" cy="165.644" r="14.5363" fill="#F34335"/>
<circle cx="273.06" cy="117.597" r="14.5363" fill="#8BC349"/>
</svg>
