<svg version="1.1" viewBox="0.0 0.0 1365.0 371.0" fill="none" stroke="none" stroke-linecap="square" stroke-miterlimit="10" width="1365" height="371" xmlns:xlink="http://www.w3.org/1999/xlink" xmlns="http://www.w3.org/2000/svg"><path fill="#ffffff" d="M0 0L1365.0 0L1365.0 371.0L0 371.0L0 0Z" fill-rule="nonzero"/><path stroke="#333333" stroke-width="1.0" stroke-linecap="butt" d="M73.5 304.5L1346.5 304.5" fill-rule="nonzero"/><path fill="#eeeeee" d="M45.5 332.5L73.5 305.5L1346.5 305.5L1318.5 332.5Z" fill-rule="nonzero"/><path stroke="#cccccc" stroke-width="1.0" stroke-linecap="butt" d="M73.5 255.5L1346.5 255.5" fill-rule="nonzero"/><path stroke="#cccccc" stroke-width="1.0" stroke-linecap="butt" d="M73.5 207.5L1346.5 207.5" fill-rule="nonzero"/><path stroke="#cccccc" stroke-width="1.0" stroke-linecap="butt" d="M73.5 158.5L1346.5 158.5" fill-rule="nonzero"/><path stroke="#cccccc" stroke-width="1.0" stroke-linecap="butt" d="M73.5 110.5L1346.5 110.5" fill-rule="nonzero"/><path stroke="#cccccc" stroke-width="1.0" stroke-linecap="butt" d="M73.5 61.5L1346.5 61.5" fill-rule="nonzero"/><path stroke="#000000" stroke-width="1.0" stroke-linecap="butt" stroke-opacity="0.0" d="M73.5 288.5L1346.5 288.5" fill-rule="nonzero"/><path stroke="#000000" stroke-width="1.0" stroke-linecap="butt" stroke-opacity="0.0" d="M73.5 272.5L1346.5 272.5" fill-rule="nonzero"/><path stroke="#000000" stroke-width="1.0" stroke-linecap="butt" stroke-opacity="0.0" d="M73.5 239.5L1346.5 239.5" fill-rule="nonzero"/><path stroke="#000000" stroke-width="1.0" stroke-linecap="butt" stroke-opacity="0.0" d="M73.5 223.5L1346.5 223.5" fill-rule="nonzero"/><path stroke="#000000" stroke-width="1.0" stroke-linecap="butt" stroke-opacity="0.0" d="M73.5 191.5L1346.5 191.5" fill-rule="nonzero"/><path stroke="#000000" stroke-width="1.0" stroke-linecap="butt" stroke-opacity="0.0" d="M73.5 175.5L1346.5 175.5" fill-rule="nonzero"/><path stroke="#000000" stroke-width="1.0" stroke-linecap="butt" stroke-opacity="0.0" d="M73.5 142.5L1346.5 142.5" fill-rule="nonzero"/><path stroke="#000000" stroke-width="1.0" stroke-linecap="butt" stroke-opacity="0.0" d="M73.5 126.5L1346.5 126.5" fill-rule="nonzero"/><path stroke="#000000" stroke-width="1.0" stroke-linecap="butt" stroke-opacity="0.0" d="M73.5 94.5L1346.5 94.5" fill-rule="nonzero"/><path stroke="#000000" stroke-width="1.0" stroke-linecap="butt" stroke-opacity="0.0" d="M73.5 78.5L1346.5 78.5" fill-rule="nonzero"/><clipPath id="id_0"><path d="M45.55 61.916668L1346.45 61.916668L1346.45 332.45L45.55 332.45L45.55 61.916668Z" clip-rule="nonzero"/></clipPath><path fill="#2b569f" clip-path="url(#id_0)" d="M196.0 62.0L196.0 304.0L173.0 327.0L173.0 85.0Z" fill-rule="nonzero"/><path fill="#689df6" clip-path="url(#id_0)" d="M173.0 85.0L83.0 85.0L106.0 62.0L196.0 62.0Z" fill-rule="nonzero"/><path stroke="#000000" stroke-width="2.0" stroke-linecap="butt" stroke-opacity="0.0" clip-path="url(#id_0)" d="M173.0 327.0L83.0 327.0L83.0 85.0L173.0 85.0Z" fill-rule="nonzero"/><path fill="#4285f4" clip-path="url(#id_0)" d="M173.0 327.0L83.0 327.0L83.0 85.0L173.0 85.0Z" fill-rule="nonzero"/><path fill="#2b569f" clip-path="url(#id_0)" d="M335.0 86.0L335.0 304.0L312.0 327.0L312.0 109.0Z" fill-rule="nonzero"/><path fill="#689df6" clip-path="url(#id_0)" d="M312.0 109.0L222.0 109.0L245.0 86.0L335.0 86.0Z" fill-rule="nonzero"/><path stroke="#000000" stroke-width="2.0" stroke-linecap="butt" stroke-opacity="0.0" clip-path="url(#id_0)" d="M312.0 327.0L222.0 327.0L222.0 109.0L312.0 109.0Z" fill-rule="nonzero"/><path fill="#4285f4" clip-path="url(#id_0)" d="M312.0 327.0L222.0 327.0L222.0 109.0L312.0 109.0Z" fill-rule="nonzero"/><path fill="#2b569f" clip-path="url(#id_0)" d="M474.0 110.0L474.0 304.0L451.0 327.0L451.0 133.0Z" fill-rule="nonzero"/><path fill="#689df6" clip-path="url(#id_0)" d="M451.0 133.0L361.0 133.0L384.0 110.0L474.0 110.0Z" fill-rule="nonzero"/><path stroke="#000000" stroke-width="2.0" stroke-linecap="butt" stroke-opacity="0.0" clip-path="url(#id_0)" d="M451.0 327.0L361.0 327.0L361.0 133.0L451.0 133.0Z" fill-rule="nonzero"/><path fill="#4285f4" clip-path="url(#id_0)" d="M451.0 327.0L361.0 327.0L361.0 133.0L451.0 133.0Z" fill-rule="nonzero"/><path fill="#2b569f" clip-path="url(#id_0)" d="M613.0 135.0L613.0 304.0L590.0 327.0L590.0 158.0Z" fill-rule="nonzero"/><path fill="#689df6" clip-path="url(#id_0)" d="M590.0 158.0L500.0 158.0L523.0 135.0L613.0 135.0Z" fill-rule="nonzero"/><path stroke="#000000" stroke-width="2.0" stroke-linecap="butt" stroke-opacity="0.0" clip-path="url(#id_0)" d="M590.0 327.0L500.0 327.0L500.0 158.0L590.0 158.0Z" fill-rule="nonzero"/><path fill="#4285f4" clip-path="url(#id_0)" d="M590.0 327.0L500.0 327.0L500.0 158.0L590.0 158.0Z" fill-rule="nonzero"/><path fill="#2b569f" clip-path="url(#id_0)" d="M753.0 159.0L753.0 304.0L730.0 327.0L730.0 182.0Z" fill-rule="nonzero"/><path fill="#689df6" clip-path="url(#id_0)" d="M730.0 182.0L640.0 182.0L663.0 159.0L753.0 159.0Z" fill-rule="nonzero"/><path stroke="#000000" stroke-width="2.0" stroke-linecap="butt" stroke-opacity="0.0" clip-path="url(#id_0)" d="M730.0 327.0L640.0 327.0L640.0 182.0L730.0 182.0Z" fill-rule="nonzero"/><path fill="#4285f4" clip-path="url(#id_0)" d="M730.0 327.0L640.0 327.0L640.0 182.0L730.0 182.0Z" fill-rule="nonzero"/><path fill="#2b569f" clip-path="url(#id_0)" d="M892.0 183.0L892.0 304.0L869.0 327.0L869.0 206.0Z" fill-rule="nonzero"/><path fill="#689df6" clip-path="url(#id_0)" d="M869.0 206.0L779.0 206.0L802.0 183.0L892.0 183.0Z" fill-rule="nonzero"/><path stroke="#000000" stroke-width="2.0" stroke-linecap="butt" stroke-opacity="0.0" clip-path="url(#id_0)" d="M869.0 327.0L779.0 327.0L779.0 206.0L869.0 206.0Z" fill-rule="nonzero"/><path fill="#4285f4" clip-path="url(#id_0)" d="M869.0 327.0L779.0 327.0L779.0 206.0L869.0 206.0Z" fill-rule="nonzero"/><path fill="#2b569f" clip-path="url(#id_0)" d="M1031.0 207.0L1031.0 304.0L1008.0 327.0L1008.0 230.0Z" fill-rule="nonzero"/><path fill="#689df6" clip-path="url(#id_0)" d="M1008.0 230.0L918.0 230.0L941.0 207.0L1031.0 207.0Z" fill-rule="nonzero"/><path stroke="#000000" stroke-width="2.0" stroke-linecap="butt" stroke-opacity="0.0" clip-path="url(#id_0)" d="M1008.0 327.0L918.0 327.0L918.0 230.0L1008.0 230.0Z" fill-rule="nonzero"/><path fill="#4285f4" clip-path="url(#id_0)" d="M1008.0 327.0L918.0 327.0L918.0 230.0L1008.0 230.0Z" fill-rule="nonzero"/><path fill="#2b569f" clip-path="url(#id_0)" d="M1170.0 232.0L1170.0 304.0L1147.0 327.0L1147.0 255.0Z" fill-rule="nonzero"/><path fill="#689df6" clip-path="url(#id_0)" d="M1147.0 255.0L1057.0 255.0L1080.0 232.0L1170.0 232.0Z" fill-rule="nonzero"/><path stroke="#000000" stroke-width="2.0" stroke-linecap="butt" stroke-opacity="0.0" clip-path="url(#id_0)" d="M1147.0 327.0L1057.0 327.0L1057.0 255.0L1147.0 255.0Z" fill-rule="nonzero"/><path fill="#4285f4" clip-path="url(#id_0)" d="M1147.0 327.0L1057.0 327.0L1057.0 255.0L1147.0 255.0Z" fill-rule="nonzero"/><path fill="#2b569f" clip-path="url(#id_0)" d="M1309.0 256.0L1309.0 304.0L1286.0 327.0L1286.0 279.0Z" fill-rule="nonzero"/><path fill="#689df6" clip-path="url(#id_0)" d="M1286.0 279.0L1196.0 279.0L1219.0 256.0L1309.0 256.0Z" fill-rule="nonzero"/><path stroke="#000000" stroke-width="2.0" stroke-linecap="butt" stroke-opacity="0.0" clip-path="url(#id_0)" d="M1286.0 327.0L1196.0 327.0L1196.0 279.0L1286.0 279.0Z" fill-rule="nonzero"/><path fill="#4285f4" clip-path="url(#id_0)" d="M1286.0 327.0L1196.0 327.0L1196.0 279.0L1286.0 279.0Z" fill-rule="nonzero"/><path fill="#000000" d="M22.05 304.21564Q22.05 302.6844 22.3625 301.7625Q22.675 300.825 23.284374 300.325Q23.909374 299.825 24.846874 299.825Q25.534374 299.825 26.05 300.10626Q26.58125 300.3875 26.925 300.91876Q27.26875 301.4344 27.45625 302.1844Q27.64375 302.9344 27.64375 304.21564Q27.64375 305.73126 27.33125 306.65314Q27.034374 307.575 26.409374 308.09064Q25.8 308.59064 24.846874 308.59064Q23.6125 308.59064 22.89375 307.7Q22.05 306.6375 22.05 304.21564ZM23.128124 304.21564Q23.128124 306.325 23.628124 307.02814Q24.128124 307.73126 24.846874 307.73126Q25.58125 307.73126 26.065624 307.02814Q26.565624 306.325 26.565624 304.21564Q26.565624 302.09064 26.065624 301.40314Q25.58125 300.7 24.83125 300.7Q24.1125 300.7 23.675 301.3094Q23.128124 302.09064 23.128124 304.21564ZM29.253124 301.91876Q29.253124 300.9969 29.70625 300.35626Q30.175 299.71564 31.05 299.71564Q31.8625 299.71564 32.39375 300.29376Q32.925 300.8719 32.925 301.98126Q32.925 303.075 32.378124 303.66876Q31.846874 304.2469 31.065624 304.2469Q30.284374 304.2469 29.76875 303.66876Q29.253124 303.09064 29.253124 301.91876ZM31.08125 300.4344Q30.690624 300.4344 30.425 300.77814Q30.175 301.1219 30.175 302.02814Q30.175 302.85626 30.425 303.2Q30.690624 303.52814 31.08125 303.52814Q31.4875 303.52814 31.7375 303.1844Q32.003124 302.84064 32.003124 301.95Q32.003124 301.10626 31.7375 300.77814Q31.471874 300.4344 31.08125 300.4344ZM31.08125 308.7625L35.784374 299.71564L36.64375 299.71564L31.95625 308.7625L31.08125 308.7625ZM34.8 306.4344Q34.8 305.5125 35.253124 304.8719Q35.721874 304.23126 36.6125 304.23126Q37.425 304.23126 37.95625 304.8094Q38.4875 305.3719 38.4875 306.4969Q38.4875 307.59064 37.940624 308.1844Q37.409374 308.7625 36.6125 308.7625Q35.846874 308.7625 35.315624 308.1844Q34.8 307.60626 34.8 306.4344ZM36.64375 304.95Q36.2375 304.95 35.971874 305.29376Q35.721874 305.6375 35.721874 306.54376Q35.721874 307.35626 35.9875 307.7Q36.253124 308.04376 36.64375 308.04376Q37.034374 308.04376 37.3 307.7Q37.565624 307.35626 37.565624 306.45Q37.565624 305.6219 37.3 305.29376Q37.034374 304.95 36.64375 304.95Z" fill-rule="nonzero"/><path fill="#000000" d="M26.01875 259.94333L24.971874 259.94333L24.971874 253.22458Q24.58125 253.58395 23.95625 253.95895Q23.346874 254.31833 22.8625 254.4902L22.8625 253.47458Q23.7375 253.0527 24.39375 252.47458Q25.065624 251.88083 25.346874 251.31833L26.01875 251.31833L26.01875 259.94333ZM29.253124 253.41208Q29.253124 252.4902 29.70625 251.84958Q30.175 251.20895 31.05 251.20895Q31.8625 251.20895 32.39375 251.78708Q32.925 252.3652 32.925 253.47458Q32.925 254.56833 32.378124 255.16208Q31.846874 255.7402 31.065624 255.7402Q30.284374 255.7402 29.76875 255.16208Q29.253124 254.58395 29.253124 253.41208ZM31.08125 251.9277Q30.690624 251.9277 30.425 252.27145Q30.175 252.6152 30.175 253.52145Q30.175 254.34958 30.425 254.69333Q30.690624 255.02145 31.08125 255.02145Q31.4875 255.02145 31.7375 254.6777Q32.003124 254.33395 32.003124 253.44333Q32.003124 252.59958 31.7375 252.27145Q31.471874 251.9277 31.08125 251.9277ZM31.08125 260.25583L35.784374 251.20895L36.64375 251.20895L31.95625 260.25583L31.08125 260.25583ZM34.8 257.9277Q34.8 257.00583 35.253124 256.3652Q35.721874 255.72458 36.6125 255.72458Q37.425 255.72458 37.95625 256.3027Q38.4875 256.8652 38.4875 257.9902Q38.4875 259.08395 37.940624 259.6777Q37.409374 260.25583 36.6125 260.25583Q35.846874 260.25583 35.315624 259.6777Q34.8 259.09958 34.8 257.9277ZM36.64375 256.44333Q36.2375 256.44333 35.971874 256.78708Q35.721874 257.13083 35.721874 258.03708Q35.721874 258.84958 35.9875 259.19333Q36.253124 259.53708 36.64375 259.53708Q37.034374 259.53708 37.3 259.19333Q37.565624 258.84958 37.565624 257.94333Q37.565624 257.1152 37.3 256.78708Q37.034374 256.44333 36.64375 256.44333Z" fill-rule="nonzero"/><path fill="#000000" d="M27.596874 210.42104L27.596874 211.43666L21.909374 211.43666Q21.909374 211.06166 22.034374 210.70229Q22.253124 210.12416 22.721874 209.56166Q23.20625 208.99916 24.1125 208.26479Q25.51875 207.10854 26.003124 206.43666Q26.503124 205.76479 26.503124 205.17104Q26.503124 204.54604 26.05 204.12416Q25.596874 203.68666 24.878124 203.68666Q24.1125 203.68666 23.659374 204.13979Q23.20625 204.59291 23.190624 205.40541L22.1125 205.29604Q22.221874 204.07729 22.940624 203.45229Q23.675 202.81166 24.909374 202.81166Q26.14375 202.81166 26.8625 203.49916Q27.58125 204.18666 27.58125 205.20229Q27.58125 205.71791 27.3625 206.21791Q27.159374 206.70229 26.659374 207.26479Q26.175 207.81166 25.05 208.76479Q24.096874 209.56166 23.815624 209.85854Q23.55 210.13979 23.378124 210.42104L27.596874 210.42104ZM29.253124 204.90541Q29.253124 203.98354 29.70625 203.34291Q30.175 202.70229 31.05 202.70229Q31.8625 202.70229 32.39375 203.28041Q32.925 203.85854 32.925 204.96791Q32.925 206.06166 32.378124 206.65541Q31.846874 207.23354 31.065624 207.23354Q30.284374 207.23354 29.76875 206.65541Q29.253124 206.07729 29.253124 204.90541ZM31.08125 203.42104Q30.690624 203.42104 30.425 203.76479Q30.175 204.10854 30.175 205.01479Q30.175 205.84291 30.425 206.18666Q30.690624 206.51479 31.08125 206.51479Q31.4875 206.51479 31.7375 206.17104Q32.003124 205.82729 32.003124 204.93666Q32.003124 204.09291 31.7375 203.76479Q31.471874 203.42104 31.08125 203.42104ZM31.08125 211.74916L35.784374 202.70229L36.64375 202.70229L31.95625 211.74916L31.08125 211.74916ZM34.8 209.42104Q34.8 208.49916 35.253124 207.85854Q35.721874 207.21791 36.6125 207.21791Q37.425 207.21791 37.95625 207.79604Q38.4875 208.35854 38.4875 209.48354Q38.4875 210.57729 37.940624 211.17104Q37.409374 211.74916 36.6125 211.74916Q35.846874 211.74916 35.315624 211.17104Q34.8 210.59291 34.8 209.42104ZM36.64375 207.93666Q36.2375 207.93666 35.971874 208.28041Q35.721874 208.62416 35.721874 209.53041Q35.721874 210.34291 35.9875 210.68666Q36.253124 211.03041 36.64375 211.03041Q37.034374 211.03041 37.3 210.68666Q37.565624 210.34291 37.565624 209.43666Q37.565624 208.60854 37.3 208.28041Q37.034374 207.93666 36.64375 207.93666Z" fill-rule="nonzero"/><path fill="#000000" d="M22.05 160.66437L23.1125 160.52374Q23.284374 161.41437 23.721874 161.82062Q24.159374 162.21124 24.784374 162.21124Q25.534374 162.21124 26.05 161.69562Q26.565624 161.18 26.565624 160.41437Q26.565624 159.69562 26.08125 159.22687Q25.6125 158.7425 24.878124 158.7425Q24.58125 158.7425 24.128124 158.8675L24.253124 157.93Q24.3625 157.94562 24.425 157.94562Q25.096874 157.94562 25.628124 157.60187Q26.175 157.2425 26.175 156.50812Q26.175 155.93 25.784374 155.555Q25.39375 155.16437 24.76875 155.16437Q24.159374 155.16437 23.7375 155.555Q23.33125 155.94562 23.221874 156.71124L22.159374 156.52374Q22.346874 155.47687 23.034374 154.89874Q23.721874 154.305 24.7375 154.305Q25.440624 154.305 26.034374 154.6175Q26.628124 154.91437 26.940624 155.43Q27.253124 155.94562 27.253124 156.53937Q27.253124 157.08624 26.95625 157.555Q26.659374 158.00812 26.08125 158.27374Q26.83125 158.44562 27.253124 159.00812Q27.675 159.555 27.675 160.39874Q27.675 161.52374 26.846874 162.305Q26.034374 163.08624 24.784374 163.08624Q23.659374 163.08624 22.909374 162.41437Q22.159374 161.72687 22.05 160.66437ZM29.253124 156.39874Q29.253124 155.47687 29.70625 154.83624Q30.175 154.19562 31.05 154.19562Q31.8625 154.19562 32.39375 154.77374Q32.925 155.35187 32.925 156.46124Q32.925 157.555 32.378124 158.14874Q31.846874 158.72687 31.065624 158.72687Q30.284374 158.72687 29.76875 158.14874Q29.253124 157.57062 29.253124 156.39874ZM31.08125 154.91437Q30.690624 154.91437 30.425 155.25812Q30.175 155.60187 30.175 156.50812Q30.175 157.33624 30.425 157.68Q30.690624 158.00812 31.08125 158.00812Q31.4875 158.00812 31.7375 157.66437Q32.003124 157.32062 32.003124 156.43Q32.003124 155.58624 31.7375 155.25812Q31.471874 154.91437 31.08125 154.91437ZM31.08125 163.2425L35.784374 154.19562L36.64375 154.19562L31.95625 163.2425L31.08125 163.2425ZM34.8 160.91437Q34.8 159.9925 35.253124 159.35187Q35.721874 158.71124 36.6125 158.71124Q37.425 158.71124 37.95625 159.28937Q38.4875 159.85187 38.4875 160.97687Q38.4875 162.07062 37.940624 162.66437Q37.409374 163.2425 36.6125 163.2425Q35.846874 163.2425 35.315624 162.66437Q34.8 162.08624 34.8 160.91437ZM36.64375 159.43Q36.2375 159.43 35.971874 159.77374Q35.721874 160.1175 35.721874 161.02374Q35.721874 161.83624 35.9875 162.18Q36.253124 162.52374 36.64375 162.52374Q37.034374 162.52374 37.3 162.18Q37.565624 161.83624 37.565624 160.93Q37.565624 160.10187 37.3 159.77374Q37.034374 159.43 36.64375 159.43Z" fill-rule="nonzero"/><path fill="#000000" d="M25.425 114.42333L25.425 112.36083L21.70625 112.36083L21.70625 111.39208L25.628124 105.82958L26.4875 105.82958L26.4875 111.39208L27.64375 111.39208L27.64375 112.36083L26.4875 112.36083L26.4875 114.42333L25.425 114.42333ZM25.425 111.39208L25.425 107.53271L22.7375 111.39208L25.425 111.39208ZM29.253124 107.89208Q29.253124 106.97021 29.70625 106.32958Q30.175 105.68896 31.05 105.68896Q31.8625 105.68896 32.39375 106.26708Q32.925 106.84521 32.925 107.95458Q32.925 109.04833 32.378124 109.64208Q31.846874 110.22021 31.065624 110.22021Q30.284374 110.22021 29.76875 109.64208Q29.253124 109.06396 29.253124 107.89208ZM31.08125 106.40771Q30.690624 106.40771 30.425 106.75146Q30.175 107.09521 30.175 108.00146Q30.175 108.82958 30.425 109.17333Q30.690624 109.50146 31.08125 109.50146Q31.4875 109.50146 31.7375 109.15771Q32.003124 108.81396 32.003124 107.92333Q32.003124 107.07958 31.7375 106.75146Q31.471874 106.40771 31.08125 106.40771ZM31.08125 114.73583L35.784374 105.68896L36.64375 105.68896L31.95625 114.73583L31.08125 114.73583ZM34.8 112.40771Q34.8 111.48583 35.253124 110.84521Q35.721874 110.20458 36.6125 110.20458Q37.425 110.20458 37.95625 110.78271Q38.4875 111.34521 38.4875 112.47021Q38.4875 113.56396 37.940624 114.15771Q37.409374 114.73583 36.6125 114.73583Q35.846874 114.73583 35.315624 114.15771Q34.8 113.57958 34.8 112.40771ZM36.64375 110.92333Q36.2375 110.92333 35.971874 111.26708Q35.721874 111.61083 35.721874 112.51708Q35.721874 113.32958 35.9875 113.67333Q36.253124 114.01708 36.64375 114.01708Q37.034374 114.01708 37.3 113.67333Q37.565624 113.32958 37.565624 112.42333Q37.565624 111.59521 37.3 111.26708Q37.034374 110.92333 36.64375 110.92333Z" fill-rule="nonzero"/><path fill="#000000" d="M22.05 63.666664L23.159374 63.572914Q23.284374 64.385414 23.721874 64.791664Q24.175 65.197914 24.815624 65.197914Q25.565624 65.197914 26.096874 64.61979Q26.628124 64.041664 26.628124 63.104164Q26.628124 62.197914 26.1125 61.68229Q25.6125 61.15104 24.784374 61.15104Q24.284374 61.15104 23.8625 61.385414Q23.45625 61.61979 23.221874 61.979164L22.2375 61.854164L23.065624 57.447914L27.346874 57.447914L27.346874 58.447914L23.909374 58.447914L23.45625 60.760414Q24.221874 60.21354 25.065624 60.21354Q26.190624 60.21354 26.95625 60.99479Q27.7375 61.77604 27.7375 63.010414Q27.7375 64.166664 27.065624 65.02604Q26.2375 66.05729 24.815624 66.05729Q23.64375 66.05729 22.89375 65.40104Q22.159374 64.74479 22.05 63.666664ZM29.253124 59.385414Q29.253124 58.46354 29.70625 57.822914Q30.175 57.18229 31.05 57.18229Q31.8625 57.18229 32.39375 57.760414Q32.925 58.33854 32.925 59.447914Q32.925 60.541664 32.378124 61.135414Q31.846874 61.71354 31.065624 61.71354Q30.284374 61.71354 29.76875 61.135414Q29.253124 60.55729 29.253124 59.385414ZM31.08125 57.90104Q30.690624 57.90104 30.425 58.24479Q30.175 58.58854 30.175 59.49479Q30.175 60.322914 30.425 60.666664Q30.690624 60.99479 31.08125 60.99479Q31.4875 60.99479 31.7375 60.65104Q32.003124 60.30729 32.003124 59.416664Q32.003124 58.572914 31.7375 58.24479Q31.471874 57.90104 31.08125 57.90104ZM31.08125 66.229164L35.784374 57.18229L36.64375 57.18229L31.95625 66.229164L31.08125 66.229164ZM34.8 63.90104Q34.8 62.979164 35.253124 62.33854Q35.721874 61.697914 36.6125 61.697914Q37.425 61.697914 37.95625 62.27604Q38.4875 62.83854 38.4875 63.96354Q38.4875 65.05729 37.940624 65.65104Q37.409374 66.229164 36.6125 66.229164Q35.846874 66.229164 35.315624 65.65104Q34.8 65.072914 34.8 63.90104ZM36.64375 62.416664Q36.2375 62.416664 35.971874 62.760414Q35.721874 63.104164 35.721874 64.010414Q35.721874 64.822914 35.9875 65.166664Q36.253124 65.510414 36.64375 65.510414Q37.034374 65.510414 37.3 65.166664Q37.565624 64.822914 37.565624 63.916664Q37.565624 63.08854 37.3 62.760414Q37.034374 62.416664 36.64375 62.416664Z" fill-rule="nonzero"/><path fill="#000000" d="M128.93399 349.45L127.887115 349.45L127.887115 342.73126Q127.49649 343.09064 126.87149 343.46564Q126.262115 343.825 125.77774 343.9969L125.77774 342.98126Q126.65274 342.5594 127.30899 341.98126Q127.980865 341.3875 128.26212 340.825L128.93399 340.825L128.93399 349.45Z" fill-rule="nonzero"/><path fill="#000000" d="M269.6458 348.4344L269.6458 349.45L263.9583 349.45Q263.9583 349.075 264.0833 348.71564Q264.30206 348.1375 264.7708 347.575Q265.2552 347.0125 266.16144 346.27814Q267.5677 345.1219 268.05206 344.45Q268.55206 343.77814 268.55206 343.1844Q268.55206 342.5594 268.09894 342.1375Q267.6458 341.7 266.92706 341.7Q266.16144 341.7 265.7083 342.15314Q265.2552 342.60626 265.23956 343.41876L264.16144 343.3094Q264.2708 342.09064 264.98956 341.46564Q265.72394 340.825 266.9583 340.825Q268.1927 340.825 268.91144 341.5125Q269.6302 342.2 269.6302 343.21564Q269.6302 343.73126 269.41144 344.23126Q269.2083 344.71564 268.7083 345.27814Q268.22394 345.825 267.09894 346.77814Q266.1458 347.575 265.86456 347.8719Q265.59894 348.15314 265.42706 348.4344L269.6458 348.4344Z" fill-rule="nonzero"/><path fill="#000000" d="M403.23264 347.1844L404.29514 347.04376Q404.467 347.9344 404.9045 348.34064Q405.342 348.73126 405.967 348.73126Q406.717 348.73126 407.23264 348.21564Q407.74826 347.7 407.74826 346.9344Q407.74826 346.21564 407.2639 345.7469Q406.79514 345.2625 406.06076 345.2625Q405.7639 345.2625 405.31076 345.3875L405.43576 344.45Q405.54514 344.46564 405.60764 344.46564Q406.2795 344.46564 406.81076 344.1219Q407.35764 343.7625 407.35764 343.02814Q407.35764 342.45 406.967 342.075Q406.5764 341.6844 405.9514 341.6844Q405.342 341.6844 404.92014 342.075Q404.5139 342.46564 404.4045 343.23126L403.342 343.04376Q403.5295 341.9969 404.217 341.41876Q404.9045 340.825 405.92014 340.825Q406.62326 340.825 407.217 341.1375Q407.81076 341.4344 408.12326 341.95Q408.43576 342.46564 408.43576 343.0594Q408.43576 343.60626 408.1389 344.075Q407.842 344.52814 407.2639 344.79376Q408.0139 344.96564 408.43576 345.52814Q408.85764 346.075 408.85764 346.91876Q408.85764 348.04376 408.0295 348.825Q407.217 349.60626 405.967 349.60626Q404.842 349.60626 404.092 348.9344Q403.342 348.2469 403.23264 347.1844Z" fill-rule="nonzero"/><path fill="#000000" d="M545.74133 349.45L545.74133 347.3875L542.0226 347.3875L542.0226 346.41876L545.94446 340.85626L546.80383 340.85626L546.80383 346.41876L547.9601 346.41876L547.9601 347.3875L546.80383 347.3875L546.80383 349.45L545.74133 349.45ZM545.74133 346.41876L545.74133 342.5594L543.05383 346.41876L545.74133 346.41876Z" fill-rule="nonzero"/><path fill="#000000" d="M681.5 347.2L682.6094 347.10626Q682.7344 347.91876 683.1719 348.325Q683.625 348.73126 684.2656 348.73126Q685.0156 348.73126 685.5469 348.15314Q686.0781 347.575 686.0781 346.6375Q686.0781 345.73126 685.5625 345.21564Q685.0625 344.6844 684.2344 344.6844Q683.7344 344.6844 683.3125 344.91876Q682.90625 345.15314 682.6719 345.5125L681.6875 345.3875L682.5156 340.98126L686.7969 340.98126L686.7969 341.98126L683.3594 341.98126L682.90625 344.29376Q683.6719 343.7469 684.5156 343.7469Q685.6406 343.7469 686.40625 344.52814Q687.1875 345.3094 687.1875 346.54376Q687.1875 347.7 686.5156 348.5594Q685.6875 349.59064 684.2656 349.59064Q683.09375 349.59064 682.34375 348.9344Q681.6094 348.27814 681.5 347.2Z" fill-rule="nonzero"/><path fill="#000000" d="M826.1024 342.96564L825.05554 343.04376Q824.9149 342.41876 824.6649 342.1375Q824.2274 341.6844 823.6024 341.6844Q823.1024 341.6844 822.7118 341.96564Q822.2274 342.34064 821.93054 343.04376Q821.6493 343.73126 821.63367 345.0125Q822.00867 344.4344 822.55554 344.15314Q823.11804 343.8719 823.7274 343.8719Q824.7743 343.8719 825.50867 344.65314Q826.25867 345.4344 826.25867 346.65314Q826.25867 347.46564 825.8993 348.16876Q825.55554 348.85626 824.94617 349.23126Q824.3368 349.59064 823.57117 349.59064Q822.24304 349.59064 821.4149 348.6219Q820.5868 347.65314 820.5868 345.4344Q820.5868 342.9344 821.50867 341.8094Q822.30554 340.825 823.6649 340.825Q824.68054 340.825 825.32117 341.40314Q825.9774 341.96564 826.1024 342.96564ZM821.80554 346.66876Q821.80554 347.21564 822.0243 347.71564Q822.25867 348.2 822.6649 348.46564Q823.0868 348.73126 823.55554 348.73126Q824.2118 348.73126 824.69617 348.2Q825.18054 347.65314 825.18054 346.73126Q825.18054 345.84064 824.69617 345.325Q824.2274 344.8094 823.50867 344.8094Q822.7899 344.8094 822.2899 345.325Q821.80554 345.84064 821.80554 346.66876Z" fill-rule="nonzero"/><path fill="#000000" d="M959.8299 341.98126L959.8299 340.96564L965.3924 340.96564L965.3924 341.79376Q964.5799 342.66876 963.7674 344.1219Q962.9705 345.5594 962.533 347.09064Q962.2049 348.16876 962.1268 349.45L961.033 349.45Q961.04865 348.4344 961.42365 346.9969Q961.8143 345.5594 962.5174 344.23126Q963.23615 342.90314 964.04865 341.98126L959.8299 341.98126Z" fill-rule="nonzero"/><path fill="#000000" d="M1100.5261 344.79376Q1099.8699 344.54376 1099.5417 344.10626Q1099.2292 343.65314 1099.2292 343.04376Q1099.2292 342.10626 1099.9011 341.46564Q1100.5886 340.825 1101.698 340.825Q1102.823 340.825 1103.5105 341.48126Q1104.198 342.1375 1104.198 343.075Q1104.198 343.66876 1103.8855 344.10626Q1103.573 344.54376 1102.9324 344.79376Q1103.7292 345.04376 1104.1355 345.6219Q1104.5417 346.2 1104.5417 346.9969Q1104.5417 348.09064 1103.7605 348.84064Q1102.9949 349.59064 1101.7136 349.59064Q1100.448 349.59064 1099.6667 348.84064Q1098.8855 348.09064 1098.8855 346.96564Q1098.8855 346.1219 1099.3074 345.5594Q1099.7449 344.9969 1100.5261 344.79376ZM1100.3074 342.9969Q1100.3074 343.60626 1100.698 343.9969Q1101.1042 344.3875 1101.7292 344.3875Q1102.3386 344.3875 1102.7292 344.0125Q1103.1199 343.6219 1103.1199 343.0594Q1103.1199 342.48126 1102.7136 342.09064Q1102.3074 341.6844 1101.7136 341.6844Q1101.1042 341.6844 1100.698 342.075Q1100.3074 342.46564 1100.3074 342.9969ZM1099.9792 346.96564Q1099.9792 347.41876 1100.1824 347.84064Q1100.4011 348.2625 1100.823 348.4969Q1101.2449 348.73126 1101.7292 348.73126Q1102.4792 348.73126 1102.9636 348.2469Q1103.4636 347.7625 1103.4636 347.0125Q1103.4636 346.2469 1102.9636 345.7469Q1102.4636 345.2469 1101.698 345.2469Q1100.948 345.2469 1100.4636 345.7469Q1099.9792 346.23126 1099.9792 346.96564Z" fill-rule="nonzero"/><path fill="#000000" d="M1238.191 347.46564L1239.2067 347.3719Q1239.3317 348.09064 1239.691 348.41876Q1240.066 348.73126 1240.6285 348.73126Q1241.1129 348.73126 1241.4723 348.5125Q1241.8473 348.27814 1242.0817 347.91876Q1242.316 347.54376 1242.4723 346.91876Q1242.6285 346.27814 1242.6285 345.6219Q1242.6285 345.54376 1242.6285 345.40314Q1242.316 345.90314 1241.7692 346.23126Q1241.2223 346.54376 1240.5817 346.54376Q1239.5035 346.54376 1238.7692 345.77814Q1238.0348 344.9969 1238.0348 343.73126Q1238.0348 342.41876 1238.8004 341.6219Q1239.5817 340.825 1240.7379 340.825Q1241.566 340.825 1242.2535 341.27814Q1242.9567 341.73126 1243.316 342.575Q1243.6754 343.40314 1243.6754 344.98126Q1243.6754 346.6219 1243.316 347.60626Q1242.9723 348.575 1242.2535 349.09064Q1241.5504 349.59064 1240.6129 349.59064Q1239.5973 349.59064 1238.9567 349.04376Q1238.316 348.48126 1238.191 347.46564ZM1242.5035 343.66876Q1242.5035 342.7625 1242.0192 342.23126Q1241.5504 341.7 1240.8629 341.7Q1240.1598 341.7 1239.6285 342.27814Q1239.1129 342.84064 1239.1129 343.7625Q1239.1129 344.575 1239.6129 345.09064Q1240.1129 345.60626 1240.8317 345.60626Q1241.566 345.60626 1242.0348 345.09064Q1242.5035 344.575 1242.5035 343.66876Z" fill-rule="nonzero"/><path fill="#757575" d="M20.409374 37.55L20.409374 23.2375L22.315624 23.2375L22.315624 37.55L20.409374 37.55ZM25.8625 37.55L25.8625 27.175L27.45625 27.175L27.45625 28.659374Q28.596874 26.940624 30.753124 26.940624Q31.690624 26.940624 32.471874 27.284374Q33.26875 27.6125 33.659374 28.159374Q34.05 28.70625 34.20625 29.45625Q34.3 29.95625 34.3 31.175L34.3 37.55L32.534374 37.55L32.534374 31.2375Q32.534374 30.159374 32.33125 29.628124Q32.128124 29.096874 31.596874 28.784374Q31.08125 28.471874 30.378124 28.471874Q29.253124 28.471874 28.440624 29.190624Q27.628124 29.89375 27.628124 31.878124L27.628124 37.55L25.8625 37.55ZM36.284374 37.55L36.284374 28.55L34.7375 28.55L34.7375 27.175L36.284374 27.175L36.284374 26.08125Q36.284374 25.034374 36.471874 24.51875Q36.721874 23.83125 37.3625 23.409374Q38.003124 22.9875 39.159374 22.9875Q39.909374 22.9875 40.8 23.159374L40.534374 24.690624Q39.9875 24.596874 39.503124 24.596874Q38.70625 24.596874 38.3625 24.940624Q38.034374 25.284374 38.034374 26.221874L38.034374 27.175L40.065624 27.175L40.065624 28.55L38.034374 28.55L38.034374 37.55L36.284374 37.55ZM41.83125 37.55L41.83125 23.2375L43.58125 23.2375L43.58125 37.55L41.83125 37.55ZM52.64375 36.26875Q51.659374 37.096874 50.753124 37.440624Q49.846874 37.784374 48.815624 37.784374Q47.1125 37.784374 46.190624 36.95625Q45.26875 36.1125 45.26875 34.815624Q45.26875 34.05 45.6125 33.425Q45.971874 32.8 46.534374 32.425Q47.096874 32.034374 47.8 31.83125Q48.315624 31.70625 49.3625 31.565624Q51.4875 31.315624 52.4875 30.971874Q52.503124 30.6125 52.503124 30.503124Q52.503124 29.440624 52.003124 28.9875Q51.33125 28.39375 50.003124 28.39375Q48.753124 28.39375 48.159374 28.83125Q47.58125 29.26875 47.3 30.378124L45.58125 30.14375Q45.815624 29.034374 46.346874 28.3625Q46.878124 27.675 47.89375 27.315624Q48.909374 26.940624 50.253124 26.940624Q51.58125 26.940624 52.409374 27.253124Q53.2375 27.565624 53.628124 28.05Q54.01875 28.51875 54.175 29.2375Q54.26875 29.690624 54.26875 30.8625L54.26875 33.20625Q54.26875 35.659374 54.378124 36.315624Q54.4875 36.95625 54.83125 37.55L52.9875 37.55Q52.721874 37.003124 52.64375 36.26875ZM52.4875 32.346874Q51.534374 32.7375 49.6125 33.003124Q48.534374 33.159374 48.08125 33.3625Q47.64375 33.55 47.39375 33.925Q47.14375 34.3 47.14375 34.76875Q47.14375 35.471874 47.675 35.940624Q48.20625 36.409374 49.2375 36.409374Q50.253124 36.409374 51.034374 35.971874Q51.83125 35.51875 52.20625 34.753124Q52.4875 34.14375 52.4875 32.9875L52.4875 32.346874ZM60.70625 35.971874L60.95625 37.534374Q60.221874 37.690624 59.628124 37.690624Q58.675 37.690624 58.14375 37.39375Q57.628124 37.08125 57.409374 36.596874Q57.190624 36.096874 57.190624 34.51875L57.190624 28.55L55.909374 28.55L55.909374 27.175L57.190624 27.175L57.190624 24.6125L58.940624 23.55L58.940624 27.175L60.70625 27.175L60.70625 28.55L58.940624 28.55L58.940624 34.6125Q58.940624 35.3625 59.034374 35.58125Q59.128124 35.784374 59.33125 35.925Q59.55 36.05 59.940624 36.05Q60.221874 36.05 60.70625 35.971874ZM62.878124 25.253124L62.878124 23.2375L64.64375 23.2375L64.64375 25.253124L62.878124 25.253124ZM62.878124 37.55L62.878124 27.175L64.64375 27.175L64.64375 37.55L62.878124 37.55ZM66.22188 32.3625Q66.22188 29.4875 67.81563 28.096874Q69.15938 26.940624 71.08125 26.940624Q73.22188 26.940624 74.56563 28.346874Q75.925 29.753124 75.925 32.221874Q75.925 34.221874 75.33125 35.378124Q74.7375 36.51875 73.58125 37.159374Q72.44063 37.784374 71.08125 37.784374Q68.89375 37.784374 67.55 36.39375Q66.22188 34.9875 66.22188 32.3625ZM68.01875 32.3625Q68.01875 34.3625 68.87813 35.346874Q69.75313 36.33125 71.08125 36.33125Q72.39375 36.33125 73.25313 35.346874Q74.12813 34.346874 74.12813 32.3Q74.12813 30.378124 73.25313 29.39375Q72.37813 28.39375 71.08125 28.39375Q69.75313 28.39375 68.87813 29.39375Q68.01875 30.378124 68.01875 32.3625ZM77.8625 37.55L77.8625 27.175L79.45625 27.175L79.45625 28.659374Q80.59688 26.940624 82.75313 26.940624Q83.69063 26.940624 84.47188 27.284374Q85.26875 27.6125 85.65938 28.159374Q86.05 28.70625 86.20625 29.45625Q86.3 29.95625 86.3 31.175L86.3 37.55L84.53438 37.55L84.53438 31.2375Q84.53438 30.159374 84.33125 29.628124Q84.12813 29.096874 83.59688 28.784374Q83.08125 28.471874 82.37813 28.471874Q81.25313 28.471874 80.44063 29.190624Q79.62813 29.89375 79.62813 31.878124L79.62813 37.55L77.8625 37.55ZM94.12813 37.55L94.12813 23.2375L100.47188 23.2375Q102.37813 23.2375 103.37813 23.628124Q104.37813 24.003124 104.97188 24.9875Q105.56563 25.95625 105.56563 27.14375Q105.56563 28.659374 104.58125 29.70625Q103.59688 30.753124 101.53438 31.034374Q102.28438 31.39375 102.675 31.753124Q103.50313 32.503124 104.25313 33.659374L106.7375 37.55L104.3625 37.55L102.45625 34.565624Q101.62813 33.284374 101.09688 32.596874Q100.56563 31.909374 100.12813 31.64375Q99.70625 31.3625 99.26875 31.253124Q98.94063 31.190624 98.22188 31.190624L96.01875 31.190624L96.01875 37.55L94.12813 37.55ZM96.01875 29.55L100.09688 29.55Q101.39375 29.55 102.1125 29.284374Q102.84688 29.01875 103.22188 28.425Q103.6125 27.83125 103.6125 27.14375Q103.6125 26.128124 102.87813 25.471874Q102.14375 24.815624 100.55 24.815624L96.01875 24.815624L96.01875 29.55ZM114.64375 36.26875Q113.65938 37.096874 112.75313 37.440624Q111.84688 37.784374 110.81563 37.784374Q109.1125 37.784374 108.19063 36.95625Q107.26875 36.1125 107.26875 34.815624Q107.26875 34.05 107.6125 33.425Q107.97188 32.8 108.53438 32.425Q109.09688 32.034374 109.8 31.83125Q110.31563 31.70625 111.3625 31.565624Q113.4875 31.315624 114.4875 30.971874Q114.50313 30.6125 114.50313 30.503124Q114.50313 29.440624 114.00313 28.9875Q113.33125 28.39375 112.00313 28.39375Q110.75313 28.39375 110.15938 28.83125Q109.58125 29.26875 109.3 30.378124L107.58125 30.14375Q107.81563 29.034374 108.34688 28.3625Q108.87813 27.675 109.89375 27.315624Q110.90938 26.940624 112.25313 26.940624Q113.58125 26.940624 114.40938 27.253124Q115.2375 27.565624 115.62813 28.05Q116.01875 28.51875 116.175 29.2375Q116.26875 29.690624 116.26875 30.8625L116.26875 33.20625Q116.26875 35.659374 116.37813 36.315624Q116.4875 36.95625 116.83125 37.55L114.9875 37.55Q114.72188 37.003124 114.64375 36.26875ZM114.4875 32.346874Q113.53438 32.7375 111.6125 33.003124Q110.53438 33.159374 110.08125 33.3625Q109.64375 33.55 109.39375 33.925Q109.14375 34.3 109.14375 34.76875Q109.14375 35.471874 109.675 35.940624Q110.20625 36.409374 111.2375 36.409374Q112.25313 36.409374 113.03438 35.971874Q113.83125 35.51875 114.20625 34.753124Q114.4875 34.14375 114.4875 32.9875L114.4875 32.346874ZM122.70625 35.971874L122.95625 37.534374Q122.22188 37.690624 121.62813 37.690624Q120.675 37.690624 120.14375 37.39375Q119.62813 37.08125 119.40938 36.596874Q119.19063 36.096874 119.19063 34.51875L119.19063 28.55L117.90938 28.55L117.90938 27.175L119.19063 27.175L119.19063 24.6125L120.94063 23.55L120.94063 27.175L122.70625 27.175L122.70625 28.55L120.94063 28.55L120.94063 34.6125Q120.94063 35.3625 121.03438 35.58125Q121.12813 35.784374 121.33125 35.925Q121.55 36.05 121.94063 36.05Q122.22188 36.05 122.70625 35.971874ZM131.97188 34.20625L133.78438 34.440624Q133.3625 36.01875 132.19063 36.909374Q131.03438 37.784374 129.22188 37.784374Q126.95625 37.784374 125.6125 36.39375Q124.28438 34.9875 124.28438 32.45625Q124.28438 29.83125 125.62813 28.39375Q126.97188 26.940624 129.12813 26.940624Q131.20625 26.940624 132.51875 28.3625Q133.84688 29.76875 133.84688 32.346874Q133.84688 32.503124 133.83125 32.815624L126.09688 32.815624Q126.19063 34.51875 127.06563 35.425Q127.94063 36.33125 129.2375 36.33125Q130.20625 36.33125 130.87813 35.83125Q131.56563 35.315624 131.97188 34.20625ZM126.19063 31.3625L131.9875 31.3625Q131.87813 30.065624 131.33125 29.409374Q130.4875 28.39375 129.14375 28.39375Q127.94063 28.39375 127.1125 29.20625Q126.28438 30.003124 126.19063 31.3625Z" fill-rule="nonzero"/></svg>