<svg width="2266" height="1421" viewBox="0 0 2266 1421" fill="none" xmlns="http://www.w3.org/2000/svg">
<g clip-path="url(#clip0_856_15662)">
<path d="M725.438 0C921.62 0 1109.07 81.1176 1243.37 224.129C1377.67 367.14 1446.85 559.315 1434.53 755.111L725.438 710.499V0Z" fill="#4285F4"/>
<path d="M1434.53 755.109C1415.21 1062.31 1200.27 1322.12 902.131 1398.67L725.438 710.496L1434.53 755.109Z" fill="#EA4335"/>
<path d="M680.836 1.40201C695.688 0.467566 710.567 0 725.449 0V710.499L680.836 1.40201Z" fill="#7BAAF7"/>
<path d="M422.922 67.6167C503.948 29.4885 591.452 7.02128 680.825 1.39844L725.438 710.495L422.922 67.6167Z" fill="#46BDC6"/>
<path d="M27.5156 577.365C70.1325 353.96 217.125 164.458 422.914 67.6211L725.429 710.499L27.5156 577.365Z" fill="#FF6D01"/>
<path d="M27.5146 843.636C10.7347 755.673 10.7347 665.33 27.5146 577.367L725.428 710.501L27.5146 843.636Z" fill="#34A853"/>
<path d="M902.123 1398.67C712.104 1447.46 510.368 1415.51 344.725 1310.39C179.082 1205.27 64.2766 1036.34 27.5156 843.63L725.429 710.496L902.123 1398.67Z" fill="#FBBC04"/>
<path d="M1583.59 301.758C1583.59 312.246 1575.09 320.747 1564.6 320.747C1554.11 320.747 1545.61 312.246 1545.61 301.758C1545.61 291.271 1554.11 282.77 1564.6 282.77C1575.09 282.77 1583.59 291.271 1583.59 301.758Z" fill="#4285F4"/>
<path d="M1631.26 304.872L1634.82 305.812C1634.06 308.746 1632.71 310.987 1630.77 312.537C1628.82 314.086 1626.43 314.861 1623.6 314.861C1620.66 314.861 1618.27 314.268 1616.43 313.081C1614.58 311.894 1613.18 310.18 1612.22 307.938C1611.27 305.663 1610.79 303.224 1610.79 300.619C1610.79 297.784 1611.33 295.312 1612.42 293.202C1613.51 291.092 1615.04 289.493 1617.02 288.405C1619.03 287.317 1621.24 286.773 1623.65 286.773C1626.35 286.773 1628.62 287.466 1630.47 288.85C1632.35 290.235 1633.65 292.18 1634.38 294.685L1630.82 295.526C1630.19 293.548 1629.27 292.114 1628.05 291.224C1626.86 290.301 1625.36 289.839 1623.55 289.839C1621.47 289.839 1619.72 290.35 1618.31 291.372C1616.92 292.361 1615.93 293.696 1615.34 295.378C1614.78 297.059 1614.5 298.806 1614.5 300.619C1614.5 302.927 1614.83 304.938 1615.49 306.652C1616.18 308.367 1617.23 309.652 1618.65 310.509C1620.07 311.367 1621.62 311.795 1623.3 311.795C1625.31 311.795 1627.01 311.218 1628.39 310.064C1629.81 308.911 1630.77 307.18 1631.26 304.872ZM1638.68 304.575C1638.68 300.916 1639.68 298.213 1641.7 296.466C1643.38 295.015 1645.44 294.29 1647.88 294.29C1650.58 294.29 1652.79 295.18 1654.5 296.96C1656.25 298.707 1657.12 301.147 1657.12 304.279C1657.12 306.817 1656.74 308.812 1655.99 310.262C1655.23 311.713 1654.11 312.85 1652.62 313.674C1651.17 314.465 1649.59 314.861 1647.88 314.861C1645.14 314.861 1642.92 313.987 1641.2 312.24C1639.52 310.46 1638.68 307.905 1638.68 304.575ZM1642.09 304.575C1642.09 307.081 1642.64 308.96 1643.72 310.213C1644.84 311.466 1646.23 312.092 1647.88 312.092C1649.56 312.092 1650.94 311.466 1652.03 310.213C1653.12 308.96 1653.66 307.048 1653.66 304.477C1653.66 302.037 1653.1 300.191 1651.98 298.938C1650.89 297.685 1649.53 297.059 1647.88 297.059C1646.23 297.059 1644.84 297.685 1643.72 298.938C1642.64 300.158 1642.09 302.037 1642.09 304.575ZM1662.07 314.416V294.735H1665.04V297.504C1665.66 296.515 1666.49 295.74 1667.51 295.18C1668.53 294.587 1669.7 294.29 1671.02 294.29C1672.47 294.29 1673.66 294.587 1674.58 295.18C1675.54 295.773 1676.2 296.614 1676.56 297.702C1678.14 295.427 1680.17 294.29 1682.64 294.29C1684.62 294.29 1686.12 294.834 1687.14 295.922C1688.2 296.977 1688.72 298.641 1688.72 300.916V314.416H1685.41V302.004C1685.41 300.685 1685.29 299.729 1685.06 299.136C1684.87 298.543 1684.49 298.065 1683.93 297.702C1683.37 297.339 1682.69 297.158 1681.9 297.158C1680.51 297.158 1679.36 297.619 1678.44 298.543C1677.55 299.466 1677.1 300.949 1677.1 302.993V314.416H1673.74V301.608C1673.74 300.125 1673.46 299.021 1672.9 298.295C1672.37 297.537 1671.5 297.158 1670.28 297.158C1669.32 297.158 1668.45 297.405 1667.66 297.9C1666.87 298.394 1666.29 299.119 1665.93 300.076C1665.56 301.032 1665.38 302.4 1665.38 304.18V314.416H1662.07ZM1696.88 314.416V294.735H1699.85V297.504C1700.48 296.515 1701.3 295.74 1702.32 295.18C1703.34 294.587 1704.51 294.29 1705.83 294.29C1707.28 294.29 1708.47 294.587 1709.39 295.18C1710.35 295.773 1711.01 296.614 1711.37 297.702C1712.95 295.427 1714.98 294.29 1717.45 294.29C1719.43 294.29 1720.93 294.834 1721.95 295.922C1723.01 296.977 1723.54 298.641 1723.54 300.916V314.416H1720.22V302.004C1720.22 300.685 1720.11 299.729 1719.88 299.136C1719.68 298.543 1719.3 298.065 1718.74 297.702C1718.18 297.339 1717.5 297.158 1716.71 297.158C1715.33 297.158 1714.17 297.619 1713.25 298.543C1712.36 299.466 1711.91 300.949 1711.91 302.993V314.416H1708.55V301.608C1708.55 300.125 1708.27 299.021 1707.71 298.295C1707.18 297.537 1706.31 297.158 1705.09 297.158C1704.13 297.158 1703.26 297.405 1702.47 297.9C1701.68 298.394 1701.1 299.119 1700.74 300.076C1700.38 301.032 1700.19 302.4 1700.19 304.18V314.416H1696.88ZM1744.6 314.416V311.498C1743.05 313.74 1740.96 314.861 1738.32 314.861C1737.17 314.861 1736.08 314.647 1735.06 314.218C1734.07 313.757 1733.33 313.196 1732.83 312.537C1732.34 311.845 1731.99 311.004 1731.79 310.015C1731.66 309.389 1731.6 308.35 1731.6 306.9V294.735H1734.96V305.663C1734.96 307.378 1735.02 308.548 1735.16 309.174C1735.35 310.031 1735.78 310.724 1736.44 311.251C1737.13 311.746 1737.99 311.993 1739.01 311.993C1740 311.993 1740.93 311.746 1741.78 311.251C1742.67 310.724 1743.3 310.015 1743.66 309.125C1744.06 308.235 1744.25 306.949 1744.25 305.268V294.735H1747.57V314.416H1744.6ZM1753.85 314.416V294.735H1756.82V297.504C1758.27 295.361 1760.36 294.29 1763.1 294.29C1764.28 294.29 1765.37 294.504 1766.36 294.933C1767.38 295.361 1768.14 295.922 1768.63 296.614C1769.13 297.306 1769.47 298.114 1769.67 299.037C1769.77 299.663 1769.82 300.751 1769.82 302.301V314.416H1766.51V302.449C1766.51 301.065 1766.38 300.043 1766.11 299.383C1765.85 298.724 1765.39 298.196 1764.73 297.801C1764.07 297.372 1763.29 297.158 1762.4 297.158C1760.99 297.158 1759.75 297.619 1758.69 298.543C1757.67 299.433 1757.16 301.13 1757.16 303.636V314.416H1753.85ZM1776 291.076V287.218H1779.36V291.076H1776ZM1776 314.416V294.735H1779.36V314.416H1776ZM1792.77 311.449L1793.26 314.367C1792.3 314.564 1791.46 314.663 1790.74 314.663C1789.52 314.663 1788.58 314.482 1787.92 314.119C1787.26 313.724 1786.78 313.213 1786.49 312.586C1786.22 311.96 1786.09 310.641 1786.09 308.63V297.306H1783.67V294.735H1786.09V289.839L1789.4 287.861V294.735H1792.77V297.306H1789.4V308.828C1789.4 309.784 1789.45 310.394 1789.55 310.658C1789.68 310.922 1789.88 311.136 1790.14 311.301C1790.41 311.466 1790.79 311.548 1791.28 311.548C1791.68 311.548 1792.17 311.515 1792.77 311.449ZM1794.84 321.982L1794.45 318.867C1795.17 319.064 1795.81 319.163 1796.38 319.163C1797.1 319.163 1797.68 319.031 1798.11 318.768C1798.57 318.537 1798.95 318.207 1799.24 317.779C1799.44 317.416 1799.79 316.575 1800.28 315.257C1800.31 315.092 1800.41 314.828 1800.58 314.465L1793.06 294.735H1796.67L1800.78 306.108C1801.3 307.559 1801.78 309.092 1802.21 310.707C1802.61 309.158 1803.07 307.658 1803.59 306.207L1807.8 294.735H1811.11L1803.64 314.762C1802.82 316.905 1802.19 318.389 1801.77 319.213C1801.17 320.334 1800.48 321.141 1799.69 321.636C1798.93 322.163 1798.02 322.427 1796.97 322.427C1796.34 322.427 1795.63 322.279 1794.84 321.982ZM1835.84 311.202C1834.75 312.422 1833.55 313.345 1832.23 313.971C1830.94 314.564 1829.54 314.861 1828.02 314.861C1825.25 314.861 1823.05 313.922 1821.4 312.042C1820.08 310.526 1819.42 308.812 1819.42 306.9C1819.42 305.218 1819.96 303.702 1821.05 302.35C1822.14 300.999 1823.75 299.812 1825.9 298.79C1824.68 297.372 1823.85 296.235 1823.42 295.378C1823.03 294.488 1822.83 293.631 1822.83 292.806C1822.83 291.191 1823.47 289.79 1824.76 288.603C1826.05 287.383 1827.66 286.773 1829.61 286.773C1831.45 286.773 1832.95 287.35 1834.11 288.504C1835.29 289.625 1835.89 290.977 1835.89 292.559C1835.89 295.163 1834.19 297.372 1830.79 299.185L1835.64 305.416C1836.2 304.328 1836.63 303.059 1836.92 301.608L1840.44 302.35C1839.84 304.724 1839.03 306.685 1838.01 308.235C1839.26 309.883 1840.68 311.268 1842.26 312.389L1839.99 315.059C1838.64 314.169 1837.25 312.883 1835.84 311.202ZM1829.06 297.059C1830.51 296.202 1831.44 295.46 1831.83 294.834C1832.26 294.174 1832.47 293.449 1832.47 292.658C1832.47 291.735 1832.18 290.977 1831.58 290.383C1831.02 289.79 1830.3 289.493 1829.41 289.493C1828.52 289.493 1827.76 289.79 1827.13 290.383C1826.54 290.977 1826.24 291.685 1826.24 292.51C1826.24 292.938 1826.36 293.383 1826.59 293.845C1826.82 294.306 1827.15 294.801 1827.58 295.328L1829.06 297.059ZM1833.76 308.581L1827.63 300.966C1825.81 302.054 1824.59 303.059 1823.97 303.982C1823.34 304.905 1823.03 305.812 1823.03 306.702C1823.03 307.823 1823.46 308.977 1824.31 310.163C1825.2 311.35 1826.46 311.944 1828.07 311.944C1829.06 311.944 1830.08 311.63 1831.14 311.004C1832.23 310.378 1833.1 309.57 1833.76 308.581ZM1855.62 314.416V287.218H1875.25V290.433H1859.23V298.74H1874.26V301.955H1859.23V311.202H1875.89V314.416H1855.62ZM1893.3 307.196L1896.56 307.641C1896.2 309.883 1895.28 311.647 1893.79 312.933C1892.31 314.218 1890.5 314.861 1888.35 314.861C1885.65 314.861 1883.47 313.987 1881.82 312.24C1880.21 310.46 1879.4 307.922 1879.4 304.625C1879.4 302.515 1879.75 300.669 1880.44 299.087C1881.17 297.471 1882.24 296.268 1883.65 295.477C1885.11 294.685 1886.69 294.29 1888.4 294.29C1890.51 294.29 1892.24 294.834 1893.59 295.922C1894.98 296.977 1895.87 298.51 1896.26 300.521L1893 301.015C1892.7 299.696 1892.16 298.707 1891.37 298.048C1890.58 297.356 1889.62 297.01 1888.5 297.01C1886.82 297.01 1885.45 297.619 1884.4 298.839C1883.34 300.026 1882.81 301.922 1882.81 304.526C1882.81 307.196 1883.32 309.125 1884.35 310.312C1885.37 311.498 1886.69 312.092 1888.3 312.092C1889.62 312.092 1890.71 311.696 1891.57 310.905C1892.46 310.114 1893.03 308.878 1893.3 307.196ZM1898.19 304.575C1898.19 300.916 1899.2 298.213 1901.21 296.466C1902.89 295.015 1904.95 294.29 1907.39 294.29C1910.09 294.29 1912.3 295.18 1914.02 296.96C1915.76 298.707 1916.64 301.147 1916.64 304.279C1916.64 306.817 1916.26 308.812 1915.5 310.262C1914.74 311.713 1913.62 312.85 1912.14 313.674C1910.69 314.465 1909.1 314.861 1907.39 314.861C1904.65 314.861 1902.43 313.987 1900.71 312.24C1899.03 310.46 1898.19 307.905 1898.19 304.575ZM1901.61 304.575C1901.61 307.081 1902.15 308.96 1903.24 310.213C1904.36 311.466 1905.74 312.092 1907.39 312.092C1909.07 312.092 1910.46 311.466 1911.54 310.213C1912.63 308.96 1913.18 307.048 1913.18 304.477C1913.18 302.037 1912.62 300.191 1911.5 298.938C1910.41 297.685 1909.04 297.059 1907.39 297.059C1905.74 297.059 1904.36 297.685 1903.24 298.938C1902.15 300.158 1901.61 302.037 1901.61 304.575ZM1920.25 308.531L1923.51 308.037C1923.71 309.356 1924.22 310.361 1925.04 311.053C1925.9 311.746 1927.1 312.092 1928.65 312.092C1930.17 312.092 1931.29 311.795 1932.02 311.202C1932.77 310.575 1933.15 309.834 1933.15 308.977C1933.15 308.218 1932.82 307.625 1932.17 307.196C1931.7 306.9 1930.57 306.52 1928.75 306.059C1926.31 305.433 1924.62 304.905 1923.66 304.477C1922.74 304.015 1922.03 303.389 1921.53 302.597C1921.04 301.806 1920.79 300.916 1920.79 299.927C1920.79 299.07 1920.99 298.262 1921.39 297.504C1921.78 296.746 1922.32 296.12 1923.02 295.625C1923.54 295.262 1924.25 294.949 1925.14 294.685C1926.03 294.422 1927.01 294.29 1928.06 294.29C1929.58 294.29 1930.91 294.521 1932.07 294.982C1933.25 295.411 1934.13 296.004 1934.69 296.762C1935.25 297.521 1935.63 298.526 1935.82 299.779L1932.56 300.224C1932.43 299.235 1932 298.46 1931.28 297.9C1930.58 297.306 1929.58 297.01 1928.26 297.01C1926.74 297.01 1925.65 297.273 1924.99 297.801C1924.34 298.295 1924.01 298.889 1924.01 299.581C1924.01 300.01 1924.14 300.389 1924.4 300.718C1924.7 301.081 1925.13 301.378 1925.69 301.608C1926.02 301.74 1927.01 302.021 1928.65 302.449C1931.03 303.108 1932.68 303.636 1933.6 304.032C1934.52 304.427 1935.25 305.004 1935.78 305.762C1936.3 306.52 1936.57 307.477 1936.57 308.63C1936.57 309.751 1936.24 310.806 1935.58 311.795C1934.95 312.751 1934.03 313.509 1932.81 314.07C1931.59 314.597 1930.2 314.861 1928.65 314.861C1926.08 314.861 1924.12 314.334 1922.77 313.279C1921.45 312.191 1920.61 310.608 1920.25 308.531ZM1943.59 321.982L1943.19 318.867C1943.92 319.064 1944.56 319.163 1945.12 319.163C1945.85 319.163 1946.42 319.031 1946.85 318.768C1947.31 318.537 1947.69 318.207 1947.99 317.779C1948.19 317.416 1948.53 316.575 1949.03 315.257C1949.06 315.092 1949.16 314.828 1949.32 314.465L1941.81 294.735H1945.42L1949.52 306.108C1950.05 307.559 1950.53 309.092 1950.96 310.707C1951.35 309.158 1951.81 307.658 1952.34 306.207L1956.54 294.735H1959.86L1952.39 314.762C1951.57 316.905 1950.94 318.389 1950.51 319.213C1949.92 320.334 1949.23 321.141 1948.43 321.636C1947.68 322.163 1946.77 322.427 1945.71 322.427C1945.09 322.427 1944.38 322.279 1943.59 321.982ZM1958.23 308.531L1961.49 308.037C1961.69 309.356 1962.2 310.361 1963.02 311.053C1963.88 311.746 1965.08 312.092 1966.63 312.092C1968.15 312.092 1969.27 311.795 1969.99 311.202C1970.75 310.575 1971.13 309.834 1971.13 308.977C1971.13 308.218 1970.8 307.625 1970.14 307.196C1969.68 306.9 1968.54 306.52 1966.73 306.059C1964.29 305.433 1962.59 304.905 1961.64 304.477C1960.71 304.015 1960.01 303.389 1959.51 302.597C1959.02 301.806 1958.77 300.916 1958.77 299.927C1958.77 299.07 1958.97 298.262 1959.36 297.504C1959.76 296.746 1960.3 296.12 1960.99 295.625C1961.52 295.262 1962.23 294.949 1963.12 294.685C1964.01 294.422 1964.98 294.29 1966.04 294.29C1967.55 294.29 1968.89 294.521 1970.04 294.982C1971.23 295.411 1972.1 296.004 1972.66 296.762C1973.23 297.521 1973.6 298.526 1973.8 299.779L1970.54 300.224C1970.41 299.235 1969.98 298.46 1969.25 297.9C1968.56 297.306 1967.55 297.01 1966.24 297.01C1964.72 297.01 1963.63 297.273 1962.97 297.801C1962.31 298.295 1961.98 298.889 1961.98 299.581C1961.98 300.01 1962.12 300.389 1962.38 300.718C1962.68 301.081 1963.1 301.378 1963.66 301.608C1963.99 301.74 1964.98 302.021 1966.63 302.449C1969.01 303.108 1970.65 303.636 1971.58 304.032C1972.5 304.427 1973.23 305.004 1973.75 305.762C1974.28 306.52 1974.54 307.477 1974.54 308.63C1974.54 309.751 1974.21 310.806 1973.55 311.795C1972.93 312.751 1972.01 313.509 1970.79 314.07C1969.57 314.597 1968.18 314.861 1966.63 314.861C1964.06 314.861 1962.1 314.334 1960.75 313.279C1959.43 312.191 1958.59 310.608 1958.23 308.531ZM1988.98 311.449L1989.48 314.367C1988.52 314.564 1987.68 314.663 1986.96 314.663C1985.74 314.663 1984.8 314.482 1984.14 314.119C1983.48 313.724 1983 313.213 1982.7 312.586C1982.44 311.96 1982.31 310.641 1982.31 308.63V297.306H1979.88V294.735H1982.31V289.839L1985.62 287.861V294.735H1988.98V297.306H1985.62V308.828C1985.62 309.784 1985.67 310.394 1985.77 310.658C1985.9 310.922 1986.1 311.136 1986.36 311.301C1986.63 311.466 1987.01 311.548 1987.5 311.548C1987.9 311.548 1988.39 311.515 1988.98 311.449ZM2004.66 308.086L2008.12 308.482C2007.59 310.493 2006.59 312.059 2005.1 313.18C2003.62 314.301 2001.74 314.861 1999.47 314.861C1996.6 314.861 1994.31 313.971 1992.59 312.191C1990.91 310.411 1990.07 307.922 1990.07 304.724C1990.07 301.427 1990.93 298.872 1992.64 297.059C1994.36 295.213 1996.57 294.29 1999.27 294.29C2001.91 294.29 2004.05 295.18 2005.7 296.96C2007.38 298.74 2008.22 301.262 2008.22 304.526C2008.22 304.724 2008.22 305.021 2008.22 305.416H1993.53C1993.66 307.592 1994.27 309.257 1995.36 310.411C1996.45 311.531 1997.82 312.092 1999.47 312.092C2000.69 312.092 2001.72 311.779 2002.58 311.152C2003.47 310.493 2004.16 309.471 2004.66 308.086ZM1993.73 302.696H2004.71C2004.58 301.015 2004.16 299.762 2003.47 298.938C2002.38 297.652 2001 297.01 1999.32 297.01C1997.77 297.01 1996.47 297.521 1995.41 298.543C1994.39 299.565 1993.83 300.949 1993.73 302.696ZM2013.36 314.416V294.735H2016.33V297.504C2016.96 296.515 2017.78 295.74 2018.8 295.18C2019.82 294.587 2020.99 294.29 2022.31 294.29C2023.76 294.29 2024.95 294.587 2025.87 295.18C2026.83 295.773 2027.49 296.614 2027.85 297.702C2029.43 295.427 2031.46 294.29 2033.93 294.29C2035.91 294.29 2037.41 294.834 2038.43 295.922C2039.49 296.977 2040.02 298.641 2040.02 300.916V314.416H2036.7V302.004C2036.7 300.685 2036.59 299.729 2036.36 299.136C2036.16 298.543 2035.78 298.065 2035.22 297.702C2034.66 297.339 2033.98 297.158 2033.19 297.158C2031.81 297.158 2030.65 297.619 2029.73 298.543C2028.84 299.466 2028.39 300.949 2028.39 302.993V314.416H2025.03V301.608C2025.03 300.125 2024.75 299.021 2024.19 298.295C2023.66 297.537 2022.79 297.158 2021.57 297.158C2020.61 297.158 2019.74 297.405 2018.95 297.9C2018.16 298.394 2017.58 299.119 2017.22 300.076C2016.86 301.032 2016.68 302.4 2016.68 304.18V314.416H2013.36Z" fill="#1A1A1A"/>
<path d="M1583.59 377.711C1583.59 388.199 1575.09 396.7 1564.6 396.7C1554.11 396.7 1545.61 388.199 1545.61 377.711C1545.61 367.224 1554.11 358.723 1564.6 358.723C1575.09 358.723 1583.59 367.224 1583.59 377.711Z" fill="#EA4335"/>
<path d="M1612.02 390.373V363.176H1630.37V366.39H1615.63V374.797H1628.39V378.011H1615.63V390.373H1612.02ZM1632.35 380.533C1632.35 376.873 1633.35 374.17 1635.36 372.423C1637.05 370.972 1639.11 370.247 1641.55 370.247C1644.25 370.247 1646.46 371.137 1648.17 372.917C1649.92 374.665 1650.79 377.104 1650.79 380.236C1650.79 382.774 1650.41 384.769 1649.66 386.22C1648.9 387.67 1647.78 388.807 1646.29 389.632C1644.84 390.423 1643.26 390.818 1641.55 390.818C1638.81 390.818 1636.58 389.945 1634.87 388.198C1633.19 386.417 1632.35 383.862 1632.35 380.533ZM1635.76 380.533C1635.76 383.038 1636.3 384.917 1637.39 386.17C1638.51 387.423 1639.9 388.049 1641.55 388.049C1643.23 388.049 1644.61 387.423 1645.7 386.17C1646.79 384.917 1647.33 383.005 1647.33 380.434C1647.33 377.994 1646.77 376.148 1645.65 374.895C1644.56 373.643 1643.19 373.016 1641.55 373.016C1639.9 373.016 1638.51 373.643 1637.39 374.895C1636.3 376.115 1635.76 377.994 1635.76 380.533ZM1668.64 390.373V387.456C1667.09 389.697 1665 390.818 1662.36 390.818C1661.21 390.818 1660.12 390.604 1659.1 390.176C1658.11 389.714 1657.37 389.154 1656.87 388.494C1656.38 387.802 1656.03 386.961 1655.84 385.972C1655.7 385.346 1655.64 384.307 1655.64 382.857V370.692H1659V381.621C1659 383.335 1659.07 384.505 1659.2 385.132C1659.4 385.989 1659.83 386.681 1660.48 387.209C1661.18 387.703 1662.03 387.95 1663.06 387.95C1664.05 387.95 1664.97 387.703 1665.83 387.209C1666.72 386.681 1667.34 385.972 1667.7 385.082C1668.1 384.192 1668.3 382.906 1668.3 381.225V370.692H1671.61V390.373H1668.64ZM1677.89 390.373V370.692H1680.86V373.461C1682.31 371.319 1684.4 370.247 1687.14 370.247C1688.32 370.247 1689.41 370.461 1690.4 370.89C1691.42 371.319 1692.18 371.879 1692.68 372.571C1693.17 373.264 1693.52 374.071 1693.72 374.994C1693.81 375.621 1693.86 376.709 1693.86 378.258V390.373H1690.55V378.406C1690.55 377.022 1690.42 376 1690.15 375.34C1689.89 374.681 1689.43 374.154 1688.77 373.758C1688.11 373.33 1687.34 373.115 1686.45 373.115C1685.03 373.115 1683.79 373.577 1682.74 374.5C1681.72 375.39 1681.2 377.088 1681.2 379.593V390.373H1677.89ZM1712.8 390.373V387.901C1711.55 389.846 1709.72 390.818 1707.31 390.818C1705.73 390.818 1704.28 390.39 1702.96 389.533C1701.64 388.643 1700.62 387.423 1699.9 385.873C1699.17 384.324 1698.81 382.544 1698.81 380.533C1698.81 378.588 1699.14 376.808 1699.8 375.192C1700.46 373.577 1701.45 372.357 1702.76 371.533C1704.08 370.676 1705.55 370.247 1707.17 370.247C1708.35 370.247 1709.41 370.494 1710.33 370.989C1711.25 371.483 1712.01 372.126 1712.6 372.917V363.176H1715.92V390.373H1712.8ZM1702.27 380.533C1702.27 383.071 1702.8 384.967 1703.85 386.22C1704.91 387.439 1706.16 388.049 1707.61 388.049C1709.06 388.049 1710.3 387.456 1711.32 386.269C1712.34 385.082 1712.85 383.269 1712.85 380.829C1712.85 378.126 1712.32 376.148 1711.27 374.895C1710.25 373.643 1708.98 373.016 1707.46 373.016C1705.98 373.016 1704.74 373.626 1703.75 374.846C1702.76 376.033 1702.27 377.928 1702.27 380.533ZM1735.06 387.95C1733.8 389.005 1732.6 389.747 1731.45 390.176C1730.32 390.604 1729.1 390.818 1727.79 390.818C1725.61 390.818 1723.95 390.291 1722.79 389.236C1721.64 388.181 1721.06 386.829 1721.06 385.181C1721.06 384.225 1721.28 383.351 1721.7 382.56C1722.13 381.736 1722.71 381.093 1723.43 380.632C1724.16 380.137 1724.97 379.775 1725.86 379.544C1726.48 379.346 1727.47 379.165 1728.82 379C1731.49 378.703 1733.47 378.324 1734.76 377.862C1734.76 377.401 1734.76 377.121 1734.76 377.022C1734.76 375.637 1734.45 374.665 1733.82 374.104C1732.96 373.379 1731.69 373.016 1730.01 373.016C1728.46 373.016 1727.31 373.297 1726.55 373.857C1725.79 374.384 1725.23 375.34 1724.87 376.725L1721.6 376.28C1721.9 374.895 1722.4 373.775 1723.09 372.917C1723.78 372.06 1724.77 371.401 1726.06 370.939C1727.34 370.478 1728.82 370.247 1730.51 370.247C1732.19 370.247 1733.56 370.445 1734.61 370.841C1735.67 371.236 1736.44 371.731 1736.93 372.324C1737.43 372.917 1737.77 373.676 1737.97 374.599C1738.07 375.159 1738.12 376.181 1738.12 377.665V382.115C1738.12 385.214 1738.19 387.176 1738.32 388C1738.48 388.824 1738.78 389.615 1739.21 390.373H1735.7C1735.37 389.681 1735.15 388.873 1735.06 387.95ZM1734.76 380.483C1733.54 380.978 1731.73 381.406 1729.32 381.769C1727.93 381.967 1726.96 382.198 1726.4 382.461C1725.84 382.692 1725.4 383.038 1725.07 383.5C1724.77 383.961 1724.62 384.489 1724.62 385.082C1724.62 385.972 1724.95 386.714 1725.61 387.307C1726.3 387.901 1727.29 388.198 1728.58 388.198C1729.86 388.198 1731 387.917 1731.99 387.357C1733.01 386.796 1733.75 386.022 1734.21 385.033C1734.58 384.274 1734.76 383.17 1734.76 381.72V380.483ZM1751.62 387.406L1752.12 390.324C1751.16 390.522 1750.32 390.621 1749.59 390.621C1748.37 390.621 1747.43 390.439 1746.77 390.077C1746.12 389.681 1745.64 389.17 1745.34 388.544C1745.08 387.917 1744.95 386.599 1744.95 384.588V373.264H1742.52V370.692H1744.95V365.797L1748.26 363.819V370.692H1751.62V373.264H1748.26V384.785C1748.26 385.741 1748.31 386.351 1748.41 386.615C1748.54 386.879 1748.74 387.093 1749 387.258C1749.26 387.423 1749.64 387.505 1750.14 387.505C1750.53 387.505 1751.03 387.472 1751.62 387.406ZM1753.85 367.033V363.176H1757.21V367.033H1753.85ZM1753.85 390.373V370.692H1757.21V390.373H1753.85ZM1762.1 380.533C1762.1 376.873 1763.11 374.17 1765.12 372.423C1766.8 370.972 1768.86 370.247 1771.3 370.247C1774.01 370.247 1776.21 371.137 1777.93 372.917C1779.68 374.665 1780.55 377.104 1780.55 380.236C1780.55 382.774 1780.17 384.769 1779.41 386.22C1778.65 387.67 1777.53 388.807 1776.05 389.632C1774.6 390.423 1773.02 390.818 1771.3 390.818C1768.57 390.818 1766.34 389.945 1764.63 388.198C1762.95 386.417 1762.1 383.862 1762.1 380.533ZM1765.52 380.533C1765.52 383.038 1766.06 384.917 1767.15 386.17C1768.27 387.423 1769.65 388.049 1771.3 388.049C1772.98 388.049 1774.37 387.423 1775.46 386.17C1776.54 384.917 1777.09 383.005 1777.09 380.434C1777.09 377.994 1776.53 376.148 1775.41 374.895C1774.32 373.643 1772.95 373.016 1771.3 373.016C1769.65 373.016 1768.27 373.643 1767.15 374.895C1766.06 376.115 1765.52 377.994 1765.52 380.533ZM1785.49 390.373V370.692H1788.46V373.461C1789.91 371.319 1792.01 370.247 1794.74 370.247C1795.93 370.247 1797.02 370.461 1798.01 370.89C1799.03 371.319 1799.79 371.879 1800.28 372.571C1800.77 373.264 1801.12 374.071 1801.32 374.994C1801.42 375.621 1801.47 376.709 1801.47 378.258V390.373H1798.15V378.406C1798.15 377.022 1798.02 376 1797.76 375.34C1797.49 374.681 1797.03 374.154 1796.37 373.758C1795.71 373.33 1794.94 373.115 1794.05 373.115C1792.63 373.115 1791.4 373.577 1790.34 374.5C1789.32 375.39 1788.81 377.088 1788.81 379.593V390.373H1785.49Z" fill="#1A1A1A"/>
<path d="M1583.59 453.669C1583.59 464.156 1575.09 472.657 1564.6 472.657C1554.11 472.657 1545.61 464.156 1545.61 453.669C1545.61 443.181 1554.11 434.68 1564.6 434.68C1575.09 434.68 1583.59 443.181 1583.59 453.669Z" fill="#FBBC04"/>
<path d="M1611.83 466.326V439.129H1622.11C1623.89 439.129 1625.26 439.211 1626.22 439.376C1627.57 439.607 1628.69 440.035 1629.58 440.662C1630.5 441.288 1631.23 442.162 1631.76 443.282C1632.32 444.403 1632.6 445.64 1632.6 446.991C1632.6 449.299 1631.86 451.26 1630.37 452.876C1628.92 454.458 1626.27 455.249 1622.41 455.249H1615.44V466.326H1611.83ZM1615.44 452.085H1622.46C1624.8 452.085 1626.45 451.656 1627.4 450.799C1628.39 449.909 1628.89 448.673 1628.89 447.09C1628.89 445.969 1628.59 445.013 1628 444.222C1627.44 443.398 1626.7 442.854 1625.77 442.59C1625.15 442.425 1624.03 442.343 1622.41 442.343H1615.44V452.085ZM1636.7 466.326V446.645H1639.72V449.612C1640.48 448.227 1641.17 447.321 1641.79 446.892C1642.45 446.431 1643.18 446.2 1643.97 446.2C1645.09 446.2 1646.23 446.546 1647.38 447.238L1646.25 450.354C1645.42 449.859 1644.61 449.612 1643.82 449.612C1643.06 449.612 1642.39 449.843 1641.79 450.304C1641.23 450.733 1640.84 451.343 1640.61 452.134C1640.21 453.321 1640.01 454.607 1640.01 455.991V466.326H1636.7ZM1649.41 442.986V439.129H1652.77V442.986H1649.41ZM1649.41 466.326V446.645H1652.77V466.326H1649.41ZM1664.34 466.326L1656.88 446.645H1660.39L1664.64 458.414C1665.07 459.7 1665.48 461.019 1665.88 462.37C1666.17 461.348 1666.59 460.112 1667.11 458.661L1671.51 446.645H1674.93L1667.46 466.326H1664.34ZM1687.59 463.903C1686.33 464.958 1685.13 465.7 1683.98 466.128C1682.85 466.557 1681.64 466.771 1680.32 466.771C1678.14 466.771 1676.48 466.244 1675.32 465.189C1674.17 464.134 1673.59 462.782 1673.59 461.134C1673.59 460.178 1673.81 459.304 1674.23 458.513C1674.66 457.689 1675.24 457.046 1675.96 456.585C1676.69 456.09 1677.5 455.727 1678.39 455.497C1679.01 455.299 1680 455.118 1681.36 454.953C1684.03 454.656 1686 454.277 1687.29 453.815C1687.29 453.354 1687.29 453.074 1687.29 452.975C1687.29 451.59 1686.98 450.618 1686.35 450.057C1685.49 449.332 1684.22 448.969 1682.54 448.969C1680.99 448.969 1679.84 449.249 1679.08 449.81C1678.32 450.337 1677.76 451.293 1677.4 452.678L1674.14 452.233C1674.43 450.848 1674.93 449.727 1675.62 448.87C1676.31 448.013 1677.3 447.354 1678.59 446.892C1679.87 446.431 1681.35 446.2 1683.04 446.2C1684.72 446.2 1686.09 446.398 1687.14 446.793C1688.2 447.189 1688.97 447.684 1689.46 448.277C1689.96 448.87 1690.31 449.629 1690.5 450.552C1690.6 451.112 1690.65 452.134 1690.65 453.618V458.068C1690.65 461.167 1690.72 463.128 1690.85 463.953C1691.01 464.777 1691.31 465.568 1691.74 466.326H1688.23C1687.9 465.634 1687.68 464.826 1687.59 463.903ZM1687.29 456.436C1686.07 456.931 1684.26 457.359 1681.85 457.722C1680.46 457.92 1679.49 458.15 1678.93 458.414C1678.37 458.645 1677.93 458.991 1677.6 459.453C1677.3 459.914 1677.15 460.442 1677.15 461.035C1677.15 461.925 1677.48 462.667 1678.14 463.26C1678.83 463.854 1679.82 464.15 1681.11 464.15C1682.39 464.15 1683.53 463.87 1684.52 463.31C1685.54 462.749 1686.28 461.975 1686.75 460.986C1687.11 460.227 1687.29 459.123 1687.29 457.672V456.436ZM1704.15 463.359L1704.65 466.277C1703.69 466.475 1702.85 466.573 1702.12 466.573C1700.9 466.573 1699.96 466.392 1699.31 466.029C1698.65 465.634 1698.17 465.123 1697.87 464.497C1697.61 463.87 1697.48 462.551 1697.48 460.541V449.216H1695.05V446.645H1697.48V441.749L1700.79 439.771V446.645H1704.15V449.216H1700.79V460.738C1700.79 461.694 1700.84 462.304 1700.94 462.568C1701.07 462.832 1701.27 463.046 1701.53 463.211C1701.79 463.376 1702.17 463.458 1702.67 463.458C1703.06 463.458 1703.56 463.425 1704.15 463.359ZM1719.83 459.997L1723.29 460.392C1722.76 462.403 1721.76 463.969 1720.27 465.09C1718.79 466.211 1716.91 466.771 1714.63 466.771C1711.77 466.771 1709.48 465.881 1707.76 464.101C1706.08 462.321 1705.24 459.832 1705.24 456.634C1705.24 453.337 1706.1 450.782 1707.81 448.969C1709.53 447.123 1711.73 446.2 1714.44 446.2C1717.07 446.2 1719.22 447.09 1720.87 448.87C1722.55 450.651 1723.39 453.172 1723.39 456.436C1723.39 456.634 1723.39 456.931 1723.39 457.326H1708.7C1708.83 459.502 1709.44 461.167 1710.53 462.321C1711.62 463.442 1712.99 464.002 1714.63 464.002C1715.85 464.002 1716.89 463.689 1717.75 463.062C1718.64 462.403 1719.33 461.381 1719.83 459.997ZM1708.9 454.607H1719.88C1719.74 452.925 1719.33 451.672 1718.64 450.848C1717.55 449.563 1716.17 448.92 1714.49 448.92C1712.94 448.92 1711.63 449.431 1710.58 450.453C1709.56 451.475 1709 452.859 1708.9 454.607ZM1737.23 457.574L1740.6 457.277C1740.76 458.661 1741.14 459.782 1741.73 460.639C1742.33 461.497 1743.23 462.205 1744.45 462.766C1745.71 463.293 1747.11 463.557 1748.66 463.557C1750.01 463.557 1751.21 463.359 1752.27 462.964C1753.32 462.535 1754.1 461.975 1754.59 461.282C1755.12 460.557 1755.38 459.782 1755.38 458.958C1755.38 458.101 1755.13 457.359 1754.64 456.733C1754.15 456.074 1753.34 455.53 1752.22 455.101C1751.46 454.804 1749.83 454.359 1747.32 453.766C1744.85 453.172 1743.12 452.612 1742.13 452.085C1740.81 451.392 1739.84 450.552 1739.21 449.563C1738.59 448.541 1738.27 447.403 1738.27 446.151C1738.27 444.799 1738.65 443.53 1739.41 442.343C1740.2 441.123 1741.34 440.217 1742.82 439.623C1744.34 438.997 1746 438.684 1747.82 438.684C1749.83 438.684 1751.61 439.013 1753.16 439.673C1754.71 440.299 1755.89 441.255 1756.72 442.541C1757.54 443.793 1757.99 445.211 1758.05 446.793L1754.59 447.041C1754.39 445.326 1753.75 444.041 1752.66 443.184C1751.61 442.293 1750.04 441.848 1747.96 441.848C1745.79 441.848 1744.21 442.244 1743.22 443.035C1742.23 443.826 1741.73 444.782 1741.73 445.903C1741.73 446.892 1742.08 447.7 1742.77 448.326C1743.46 448.953 1745.26 449.596 1748.16 450.255C1751.1 450.914 1753.11 451.491 1754.19 451.986C1755.78 452.744 1756.95 453.683 1757.71 454.804C1758.46 455.892 1758.84 457.178 1758.84 458.661C1758.84 460.112 1758.43 461.48 1757.61 462.766C1756.78 464.019 1755.6 465.008 1754.05 465.733C1752.5 466.425 1750.75 466.771 1748.8 466.771C1746.33 466.771 1744.26 466.425 1742.57 465.733C1740.93 465.008 1739.62 463.92 1738.67 462.469C1737.74 461.019 1737.27 459.387 1737.23 457.574ZM1776.2 463.903C1774.95 464.958 1773.74 465.7 1772.59 466.128C1771.47 466.557 1770.25 466.771 1768.93 466.771C1766.76 466.771 1765.09 466.244 1763.94 465.189C1762.78 464.134 1762.21 462.782 1762.21 461.134C1762.21 460.178 1762.42 459.304 1762.85 458.513C1763.28 457.689 1763.85 457.046 1764.58 456.585C1765.3 456.09 1766.11 455.727 1767 455.497C1767.63 455.299 1768.62 455.118 1769.97 454.953C1772.64 454.656 1774.62 454.277 1775.9 453.815C1775.9 453.354 1775.9 453.074 1775.9 452.975C1775.9 451.59 1775.59 450.618 1774.96 450.057C1774.11 449.332 1772.84 448.969 1771.16 448.969C1769.61 448.969 1768.45 449.249 1767.69 449.81C1766.94 450.337 1766.38 451.293 1766.01 452.678L1762.75 452.233C1763.05 450.848 1763.54 449.727 1764.23 448.87C1764.93 448.013 1765.91 447.354 1767.2 446.892C1768.49 446.431 1769.97 446.2 1771.65 446.2C1773.33 446.2 1774.7 446.398 1775.76 446.793C1776.81 447.189 1777.58 447.684 1778.08 448.277C1778.57 448.87 1778.92 449.629 1779.12 450.552C1779.22 451.112 1779.27 452.134 1779.27 453.618V458.068C1779.27 461.167 1779.33 463.128 1779.46 463.953C1779.63 464.777 1779.93 465.568 1780.35 466.326H1776.84C1776.51 465.634 1776.3 464.826 1776.2 463.903ZM1775.9 456.436C1774.68 456.931 1772.87 457.359 1770.46 457.722C1769.08 457.92 1768.11 458.15 1767.55 458.414C1766.99 458.645 1766.54 458.991 1766.21 459.453C1765.91 459.914 1765.77 460.442 1765.77 461.035C1765.77 461.925 1766.1 462.667 1766.76 463.26C1767.45 463.854 1768.44 464.15 1769.72 464.15C1771.01 464.15 1772.15 463.87 1773.13 463.31C1774.16 462.749 1774.9 461.975 1775.36 460.986C1775.72 460.227 1775.9 459.123 1775.9 457.672V456.436ZM1785.4 466.326V439.129H1788.76V466.326H1785.4ZM1808.44 459.997L1811.9 460.392C1811.38 462.403 1810.37 463.969 1808.89 465.09C1807.4 466.211 1805.52 466.771 1803.25 466.771C1800.38 466.771 1798.09 465.881 1796.38 464.101C1794.69 462.321 1793.85 459.832 1793.85 456.634C1793.85 453.337 1794.71 450.782 1796.43 448.969C1798.14 447.123 1800.35 446.2 1803.05 446.2C1805.69 446.2 1807.83 447.09 1809.48 448.87C1811.16 450.651 1812 453.172 1812 456.436C1812 456.634 1812 456.931 1812 457.326H1797.32C1797.45 459.502 1798.06 461.167 1799.15 462.321C1800.23 463.442 1801.6 464.002 1803.25 464.002C1804.47 464.002 1805.51 463.689 1806.36 463.062C1807.25 462.403 1807.95 461.381 1808.44 459.997ZM1797.51 454.607H1808.49C1808.36 452.925 1807.95 451.672 1807.25 450.848C1806.17 449.563 1804.78 448.92 1803.1 448.92C1801.55 448.92 1800.25 449.431 1799.19 450.453C1798.17 451.475 1797.61 452.859 1797.51 454.607Z" fill="#1A1A1A"/>
<path d="M1583.59 529.622C1583.59 540.109 1575.09 548.61 1564.6 548.61C1554.11 548.61 1545.61 540.109 1545.61 529.622C1545.61 519.134 1554.11 510.633 1564.6 510.633C1575.09 510.633 1583.59 519.134 1583.59 529.622Z" fill="#34A853"/>
<path d="M1611.83 542.279V515.082H1622.11C1623.89 515.082 1625.26 515.164 1626.22 515.329C1627.57 515.56 1628.69 515.988 1629.58 516.615C1630.5 517.241 1631.23 518.115 1631.76 519.236C1632.32 520.356 1632.6 521.593 1632.6 522.944C1632.6 525.252 1631.86 527.214 1630.37 528.829C1628.92 530.411 1626.27 531.202 1622.41 531.202H1615.44V542.279H1611.83ZM1615.44 528.038H1622.46C1624.8 528.038 1626.45 527.609 1627.4 526.752C1628.39 525.862 1628.89 524.626 1628.89 523.043C1628.89 521.922 1628.59 520.966 1628 520.175C1627.44 519.351 1626.7 518.807 1625.77 518.543C1625.15 518.378 1624.03 518.296 1622.41 518.296H1615.44V528.038ZM1649.66 542.279V539.362C1648.11 541.603 1646.01 542.724 1643.38 542.724C1642.22 542.724 1641.14 542.51 1640.11 542.082C1639.12 541.62 1638.38 541.06 1637.89 540.4C1637.39 539.708 1637.05 538.867 1636.85 537.878C1636.72 537.252 1636.65 536.213 1636.65 534.763V522.598H1640.01V533.527C1640.01 535.241 1640.08 536.411 1640.21 537.038C1640.41 537.895 1640.84 538.587 1641.5 539.115C1642.19 539.609 1643.05 539.856 1644.07 539.856C1645.06 539.856 1645.98 539.609 1646.84 539.115C1647.73 538.587 1648.36 537.878 1648.72 536.988C1649.11 536.098 1649.31 534.812 1649.31 533.131V522.598H1652.62V542.279H1649.66ZM1661.97 542.279H1658.86V515.082H1662.22V524.774C1663.64 523.027 1665.43 522.153 1667.61 522.153C1668.83 522.153 1669.97 522.4 1671.02 522.895C1672.11 523.356 1673 524.032 1673.69 524.922C1674.42 525.812 1674.98 526.884 1675.37 528.137C1675.77 529.389 1675.96 530.724 1675.96 532.142C1675.96 535.505 1675.12 538.109 1673.44 539.955C1671.76 541.801 1669.77 542.724 1667.46 542.724C1665.12 542.724 1663.29 541.752 1661.97 539.807V542.279ZM1661.92 532.29C1661.92 534.631 1662.25 536.329 1662.91 537.384C1663.97 539.098 1665.38 539.955 1667.16 539.955C1668.61 539.955 1669.87 539.329 1670.92 538.076C1672.01 536.823 1672.55 534.928 1672.55 532.389C1672.55 529.818 1672.04 527.922 1671.02 526.703C1670 525.483 1668.76 524.873 1667.31 524.873C1665.86 524.873 1664.59 525.516 1663.5 526.801C1662.45 528.054 1661.92 529.884 1661.92 532.29ZM1680.96 542.279V515.082H1684.32V542.279H1680.96ZM1690.55 518.939V515.082H1693.92V518.939H1690.55ZM1690.55 542.279V522.598H1693.92V542.279H1690.55ZM1712.9 535.06L1716.17 535.505C1715.81 537.746 1714.88 539.51 1713.4 540.796C1711.92 542.082 1710.1 542.724 1707.96 542.724C1705.26 542.724 1703.08 541.851 1701.43 540.104C1699.82 538.323 1699.01 535.785 1699.01 532.488C1699.01 530.378 1699.35 528.532 1700.05 526.95C1700.77 525.334 1701.84 524.131 1703.26 523.34C1704.71 522.549 1706.29 522.153 1708.01 522.153C1710.12 522.153 1711.85 522.697 1713.2 523.785C1714.59 524.84 1715.48 526.373 1715.87 528.384L1712.61 528.878C1712.31 527.56 1711.77 526.571 1710.98 525.911C1710.18 525.219 1709.23 524.873 1708.11 524.873C1706.43 524.873 1705.06 525.483 1704 526.703C1702.95 527.889 1702.42 529.785 1702.42 532.389C1702.42 535.06 1702.93 536.988 1703.95 538.175C1704.98 539.362 1706.29 539.955 1707.91 539.955C1709.23 539.955 1710.32 539.56 1711.17 538.768C1712.06 537.977 1712.64 536.741 1712.9 535.06ZM1727.74 533.527L1731.1 533.23C1731.27 534.615 1731.65 535.735 1732.24 536.593C1732.83 537.45 1733.74 538.158 1734.96 538.719C1736.21 539.246 1737.61 539.51 1739.16 539.51C1740.51 539.51 1741.72 539.312 1742.77 538.917C1743.83 538.488 1744.6 537.928 1745.1 537.235C1745.62 536.51 1745.89 535.735 1745.89 534.911C1745.89 534.054 1745.64 533.312 1745.15 532.686C1744.65 532.027 1743.84 531.483 1742.72 531.054C1741.96 530.757 1740.33 530.312 1737.83 529.719C1735.35 529.126 1733.62 528.565 1732.63 528.038C1731.32 527.345 1730.34 526.505 1729.72 525.516C1729.09 524.494 1728.78 523.356 1728.78 522.104C1728.78 520.752 1729.16 519.483 1729.91 518.296C1730.71 517.076 1731.84 516.17 1733.33 515.576C1734.84 514.95 1736.51 514.637 1738.32 514.637C1740.33 514.637 1742.11 514.966 1743.66 515.626C1745.21 516.252 1746.4 517.208 1747.22 518.494C1748.05 519.747 1748.49 521.164 1748.56 522.747L1745.1 522.994C1744.9 521.28 1744.26 519.994 1743.17 519.137C1742.11 518.247 1740.55 517.802 1738.47 517.802C1736.29 517.802 1734.71 518.197 1733.72 518.988C1732.73 519.78 1732.24 520.736 1732.24 521.856C1732.24 522.845 1732.59 523.653 1733.28 524.279C1733.97 524.906 1735.77 525.549 1738.67 526.208C1741.6 526.867 1743.61 527.444 1744.7 527.939C1746.28 528.697 1747.45 529.637 1748.21 530.757C1748.97 531.845 1749.35 533.131 1749.35 534.615C1749.35 536.065 1748.94 537.433 1748.11 538.719C1747.29 539.972 1746.1 540.961 1744.55 541.686C1743 542.378 1741.26 542.724 1739.31 542.724C1736.84 542.724 1734.76 542.378 1733.08 541.686C1731.43 540.961 1730.13 539.873 1729.17 538.422C1728.25 536.972 1727.77 535.34 1727.74 533.527ZM1766.71 539.856C1765.45 540.911 1764.25 541.653 1763.1 542.082C1761.98 542.51 1760.76 542.724 1759.44 542.724C1757.26 542.724 1755.6 542.197 1754.44 541.142C1753.29 540.087 1752.71 538.735 1752.71 537.087C1752.71 536.131 1752.93 535.257 1753.35 534.466C1753.78 533.642 1754.36 532.999 1755.09 532.538C1755.81 532.043 1756.62 531.681 1757.51 531.45C1758.13 531.252 1759.12 531.071 1760.48 530.906C1763.15 530.609 1765.12 530.23 1766.41 529.768C1766.41 529.307 1766.41 529.027 1766.41 528.928C1766.41 527.543 1766.1 526.571 1765.47 526.01C1764.61 525.285 1763.34 524.922 1761.66 524.922C1760.11 524.922 1758.96 525.203 1758.2 525.763C1757.44 526.29 1756.88 527.246 1756.52 528.631L1753.26 528.186C1753.55 526.801 1754.05 525.681 1754.74 524.823C1755.43 523.966 1756.42 523.307 1757.71 522.845C1758.99 522.384 1760.48 522.153 1762.16 522.153C1763.84 522.153 1765.21 522.351 1766.26 522.747C1767.32 523.142 1768.09 523.637 1768.58 524.23C1769.08 524.823 1769.43 525.582 1769.62 526.505C1769.72 527.065 1769.77 528.087 1769.77 529.571V534.021C1769.77 537.12 1769.84 539.082 1769.97 539.906C1770.13 540.73 1770.43 541.521 1770.86 542.279H1767.35C1767.02 541.587 1766.8 540.779 1766.71 539.856ZM1766.41 532.389C1765.19 532.884 1763.38 533.312 1760.97 533.675C1759.59 533.873 1758.61 534.104 1758.05 534.367C1757.49 534.598 1757.05 534.944 1756.72 535.406C1756.42 535.867 1756.27 536.395 1756.27 536.988C1756.27 537.878 1756.6 538.62 1757.26 539.213C1757.95 539.807 1758.94 540.104 1760.23 540.104C1761.51 540.104 1762.65 539.823 1763.64 539.263C1764.66 538.702 1765.4 537.928 1765.87 536.939C1766.23 536.18 1766.41 535.076 1766.41 533.626V532.389ZM1775.9 542.279V515.082H1779.27V542.279H1775.9ZM1798.95 535.95L1802.41 536.345C1801.88 538.356 1800.88 539.922 1799.39 541.043C1797.91 542.164 1796.03 542.724 1793.76 542.724C1790.89 542.724 1788.6 541.834 1786.88 540.054C1785.2 538.274 1784.36 535.785 1784.36 532.587C1784.36 529.29 1785.22 526.735 1786.93 524.922C1788.65 523.076 1790.85 522.153 1793.56 522.153C1796.19 522.153 1798.34 523.043 1799.99 524.823C1801.67 526.604 1802.51 529.126 1802.51 532.389C1802.51 532.587 1802.51 532.884 1802.51 533.279H1787.82C1787.95 535.455 1788.56 537.12 1789.65 538.274C1790.74 539.395 1792.11 539.955 1793.76 539.955C1794.97 539.955 1796.01 539.642 1796.87 539.016C1797.76 538.356 1798.45 537.334 1798.95 535.95ZM1788.02 530.56H1799C1798.86 528.878 1798.45 527.626 1797.76 526.801C1796.67 525.516 1795.29 524.873 1793.61 524.873C1792.06 524.873 1790.76 525.384 1789.7 526.406C1788.68 527.428 1788.12 528.812 1788.02 530.56Z" fill="#1A1A1A"/>
<path d="M1583.59 605.575C1583.59 616.062 1575.09 624.564 1564.6 624.564C1554.11 624.564 1545.61 616.062 1545.61 605.575C1545.61 595.088 1554.11 586.586 1564.6 586.586C1575.09 586.586 1583.59 595.088 1583.59 605.575Z" fill="#FF6D01"/>
<path d="M1618.75 618.237V594.253H1609.8V591.039H1631.36V594.253H1622.36V618.237H1618.75ZM1647.03 611.907L1650.49 612.303C1649.97 614.314 1648.96 615.879 1647.48 617C1645.99 618.121 1644.12 618.682 1641.84 618.682C1638.97 618.682 1636.68 617.792 1634.97 616.011C1633.29 614.231 1632.45 611.742 1632.45 608.544C1632.45 605.248 1633.3 602.693 1635.02 600.88C1636.73 599.033 1638.94 598.11 1641.64 598.11C1644.28 598.11 1646.42 599.001 1648.07 600.781C1649.75 602.561 1650.59 605.083 1650.59 608.347C1650.59 608.544 1650.59 608.841 1650.59 609.237H1635.91C1636.04 611.412 1636.65 613.077 1637.74 614.231C1638.82 615.352 1640.19 615.912 1641.84 615.912C1643.06 615.912 1644.1 615.599 1644.96 614.973C1645.85 614.314 1646.54 613.292 1647.03 611.907ZM1636.1 606.517H1647.08C1646.95 604.836 1646.54 603.583 1645.85 602.759C1644.76 601.473 1643.37 600.83 1641.69 600.83C1640.14 600.83 1638.84 601.341 1637.79 602.363C1636.76 603.385 1636.2 604.77 1636.1 606.517ZM1668.59 611.017L1671.86 611.462C1671.49 613.704 1670.57 615.467 1669.09 616.753C1667.6 618.039 1665.79 618.682 1663.65 618.682C1660.94 618.682 1658.77 617.808 1657.12 616.061C1655.51 614.281 1654.7 611.742 1654.7 608.445C1654.7 606.336 1655.04 604.489 1655.74 602.907C1656.46 601.292 1657.53 600.088 1658.95 599.297C1660.4 598.506 1661.98 598.11 1663.7 598.11C1665.81 598.11 1667.54 598.654 1668.89 599.742C1670.27 600.797 1671.16 602.33 1671.56 604.341L1668.3 604.836C1668 603.517 1667.46 602.528 1666.66 601.869C1665.87 601.176 1664.92 600.83 1663.8 600.83C1662.12 600.83 1660.75 601.44 1659.69 602.66C1658.64 603.847 1658.11 605.742 1658.11 608.347C1658.11 611.017 1658.62 612.945 1659.64 614.132C1660.66 615.319 1661.98 615.912 1663.6 615.912C1664.92 615.912 1666.01 615.517 1666.86 614.726C1667.75 613.934 1668.33 612.698 1668.59 611.017ZM1674.72 618.237V591.039H1678.04V600.781C1679.59 599.001 1681.55 598.11 1683.92 598.11C1685.41 598.11 1686.68 598.407 1687.73 599.001C1688.82 599.561 1689.59 600.352 1690.05 601.374C1690.52 602.363 1690.75 603.83 1690.75 605.775V618.237H1687.43V605.775C1687.43 604.094 1687.07 602.874 1686.35 602.116C1685.62 601.358 1684.6 600.979 1683.28 600.979C1682.29 600.979 1681.35 601.242 1680.46 601.77C1679.6 602.264 1678.98 602.957 1678.58 603.847C1678.22 604.704 1678.04 605.907 1678.04 607.456V618.237H1674.72ZM1696.88 618.237V598.555H1699.85V601.325C1701.3 599.182 1703.39 598.11 1706.13 598.11C1707.31 598.11 1708.4 598.325 1709.39 598.753C1710.41 599.182 1711.17 599.742 1711.66 600.435C1712.16 601.127 1712.5 601.935 1712.7 602.858C1712.8 603.484 1712.85 604.572 1712.85 606.121V618.237H1709.54V606.27C1709.54 604.885 1709.41 603.863 1709.14 603.204C1708.88 602.544 1708.42 602.017 1707.76 601.621C1707.1 601.193 1706.32 600.979 1705.43 600.979C1704.02 600.979 1702.78 601.44 1701.72 602.363C1700.7 603.253 1700.19 604.951 1700.19 607.456V618.237H1696.88ZM1719.03 594.896V591.039H1722.39V594.896H1719.03ZM1719.03 618.237V598.555H1722.39V618.237H1719.03ZM1741.38 611.017L1744.65 611.462C1744.28 613.704 1743.36 615.467 1741.88 616.753C1740.39 618.039 1738.58 618.682 1736.44 618.682C1733.74 618.682 1731.56 617.808 1729.91 616.061C1728.3 614.281 1727.49 611.742 1727.49 608.445C1727.49 606.336 1727.83 604.489 1728.53 602.907C1729.25 601.292 1730.32 600.088 1731.74 599.297C1733.19 598.506 1734.77 598.11 1736.49 598.11C1738.6 598.11 1740.33 598.654 1741.68 599.742C1743.06 600.797 1743.96 602.33 1744.35 604.341L1741.09 604.836C1740.79 603.517 1740.25 602.528 1739.46 601.869C1738.66 601.176 1737.71 600.83 1736.59 600.83C1734.91 600.83 1733.54 601.44 1732.48 602.66C1731.43 603.847 1730.9 605.742 1730.9 608.347C1730.9 611.017 1731.41 612.945 1732.43 614.132C1733.46 615.319 1734.77 615.912 1736.39 615.912C1737.71 615.912 1738.8 615.517 1739.65 614.726C1740.54 613.934 1741.12 612.698 1741.38 611.017ZM1760.37 615.814C1759.12 616.868 1757.92 617.61 1756.76 618.039C1755.64 618.467 1754.42 618.682 1753.1 618.682C1750.93 618.682 1749.26 618.154 1748.11 617.099C1746.95 616.044 1746.38 614.693 1746.38 613.044C1746.38 612.088 1746.59 611.215 1747.02 610.423C1747.45 609.599 1748.03 608.956 1748.75 608.495C1749.48 608 1750.28 607.638 1751.17 607.407C1751.8 607.209 1752.79 607.028 1754.14 606.863C1756.81 606.566 1758.79 606.187 1760.08 605.726C1760.08 605.264 1760.08 604.984 1760.08 604.885C1760.08 603.5 1759.76 602.528 1759.14 601.968C1758.28 601.242 1757.01 600.88 1755.33 600.88C1753.78 600.88 1752.63 601.16 1751.87 601.72C1751.11 602.248 1750.55 603.204 1750.19 604.588L1746.92 604.143C1747.22 602.759 1747.71 601.638 1748.41 600.781C1749.1 599.924 1750.09 599.264 1751.37 598.803C1752.66 598.341 1754.14 598.11 1755.82 598.11C1757.5 598.11 1758.87 598.308 1759.93 598.704C1760.98 599.099 1761.76 599.594 1762.25 600.187C1762.75 600.781 1763.09 601.539 1763.29 602.462C1763.39 603.022 1763.44 604.044 1763.44 605.528V609.978C1763.44 613.077 1763.5 615.039 1763.64 615.863C1763.8 616.687 1764.1 617.478 1764.53 618.237H1761.02C1760.69 617.544 1760.47 616.737 1760.37 615.814ZM1760.08 608.347C1758.86 608.841 1757.04 609.27 1754.64 609.632C1753.25 609.83 1752.28 610.061 1751.72 610.325C1751.16 610.555 1750.71 610.902 1750.38 611.363C1750.09 611.825 1749.94 612.352 1749.94 612.945C1749.94 613.836 1750.27 614.577 1750.93 615.171C1751.62 615.764 1752.61 616.061 1753.89 616.061C1755.18 616.061 1756.32 615.781 1757.31 615.22C1758.33 614.66 1759.07 613.885 1759.53 612.896C1759.89 612.138 1760.08 611.033 1760.08 609.583V608.347ZM1769.57 618.237V591.039H1772.93V618.237H1769.57Z" fill="#1A1A1A"/>
<path d="M1583.59 681.536C1583.59 692.023 1575.09 700.525 1564.6 700.525C1554.11 700.525 1545.61 692.023 1545.61 681.536C1545.61 671.048 1554.11 662.547 1564.6 662.547C1575.09 662.547 1583.59 671.048 1583.59 681.536Z" fill="#46BDC6"/>
<path d="M1611.83 694.19V666.992H1622.11C1623.89 666.992 1625.26 667.075 1626.22 667.239C1627.57 667.47 1628.69 667.899 1629.58 668.525C1630.5 669.151 1631.23 670.025 1631.76 671.146C1632.32 672.267 1632.6 673.503 1632.6 674.855C1632.6 677.162 1631.86 679.124 1630.37 680.739C1628.92 682.322 1626.27 683.113 1622.41 683.113H1615.44V694.19H1611.83ZM1615.44 679.948H1622.46C1624.8 679.948 1626.45 679.52 1627.4 678.662C1628.39 677.772 1628.89 676.536 1628.89 674.954C1628.89 673.833 1628.59 672.877 1628 672.086C1627.44 671.261 1626.7 670.717 1625.77 670.454C1625.15 670.289 1624.03 670.206 1622.41 670.206H1615.44V679.948ZM1649.61 691.767C1648.36 692.822 1647.15 693.563 1646 693.992C1644.88 694.421 1643.66 694.635 1642.34 694.635C1640.16 694.635 1638.5 694.107 1637.34 693.052C1636.19 691.997 1635.61 690.646 1635.61 688.997C1635.61 688.041 1635.83 687.168 1636.26 686.377C1636.69 685.552 1637.26 684.91 1637.99 684.448C1638.71 683.954 1639.52 683.591 1640.41 683.36C1641.04 683.162 1642.03 682.981 1643.38 682.816C1646.05 682.52 1648.03 682.14 1649.31 681.679C1649.31 681.217 1649.31 680.937 1649.31 680.838C1649.31 679.454 1649 678.481 1648.37 677.921C1647.51 677.195 1646.25 676.833 1644.56 676.833C1643.01 676.833 1641.86 677.113 1641.1 677.673C1640.34 678.201 1639.78 679.157 1639.42 680.542L1636.16 680.096C1636.45 678.712 1636.95 677.591 1637.64 676.734C1638.33 675.877 1639.32 675.217 1640.61 674.756C1641.89 674.294 1643.38 674.064 1645.06 674.064C1646.74 674.064 1648.11 674.261 1649.16 674.657C1650.22 675.053 1650.99 675.547 1651.49 676.14C1651.98 676.734 1652.33 677.492 1652.53 678.415C1652.62 678.976 1652.67 679.998 1652.67 681.481V685.932C1652.67 689.03 1652.74 690.992 1652.87 691.816C1653.04 692.64 1653.33 693.431 1653.76 694.19H1650.25C1649.92 693.497 1649.71 692.69 1649.61 691.767ZM1649.31 684.3C1648.09 684.794 1646.28 685.223 1643.87 685.585C1642.49 685.783 1641.51 686.014 1640.95 686.278C1640.39 686.508 1639.95 686.855 1639.62 687.316C1639.32 687.778 1639.17 688.305 1639.17 688.899C1639.17 689.789 1639.5 690.53 1640.16 691.124C1640.86 691.717 1641.84 692.014 1643.13 692.014C1644.42 692.014 1645.55 691.734 1646.54 691.173C1647.56 690.613 1648.31 689.838 1648.77 688.849C1649.13 688.091 1649.31 686.986 1649.31 685.536V684.3ZM1658.86 694.19V674.509H1661.87V677.476C1662.63 676.091 1663.32 675.184 1663.95 674.756C1664.61 674.294 1665.33 674.064 1666.12 674.064C1667.25 674.064 1668.38 674.41 1669.54 675.102L1668.4 678.217C1667.57 677.723 1666.77 677.476 1665.98 677.476C1665.22 677.476 1664.54 677.706 1663.95 678.168C1663.39 678.596 1662.99 679.206 1662.76 679.998C1662.37 681.184 1662.17 682.47 1662.17 683.855V694.19H1658.86ZM1678.83 691.223L1679.33 694.14C1678.37 694.338 1677.53 694.437 1676.81 694.437C1675.59 694.437 1674.65 694.256 1673.99 693.893C1673.33 693.497 1672.85 692.986 1672.55 692.36C1672.29 691.734 1672.16 690.415 1672.16 688.404V677.08H1669.73V674.509H1672.16V669.613L1675.47 667.635V674.509H1678.83V677.08H1675.47V688.602C1675.47 689.558 1675.52 690.168 1675.62 690.432C1675.75 690.695 1675.95 690.91 1676.21 691.074C1676.48 691.239 1676.86 691.322 1677.35 691.322C1677.75 691.322 1678.24 691.289 1678.83 691.223ZM1681.06 694.19V674.509H1684.03V677.278C1685.48 675.135 1687.57 674.064 1690.31 674.064C1691.49 674.064 1692.58 674.278 1693.57 674.706C1694.59 675.135 1695.35 675.695 1695.84 676.388C1696.34 677.08 1696.68 677.888 1696.88 678.811C1696.98 679.437 1697.03 680.525 1697.03 682.074V694.19H1693.72V682.223C1693.72 680.838 1693.59 679.816 1693.32 679.157C1693.06 678.498 1692.6 677.97 1691.94 677.575C1691.28 677.146 1690.5 676.932 1689.61 676.932C1688.2 676.932 1686.96 677.393 1685.9 678.316C1684.88 679.206 1684.37 680.904 1684.37 683.41V694.19H1681.06ZM1716.66 687.86L1720.12 688.256C1719.6 690.267 1718.59 691.833 1717.11 692.953C1715.62 694.074 1713.74 694.635 1711.47 694.635C1708.6 694.635 1706.31 693.745 1704.6 691.964C1702.92 690.184 1702.07 687.695 1702.07 684.498C1702.07 681.201 1702.93 678.646 1704.65 676.833C1706.36 674.987 1708.57 674.064 1711.27 674.064C1713.91 674.064 1716.05 674.954 1717.7 676.734C1719.38 678.514 1720.22 681.036 1720.22 684.3C1720.22 684.498 1720.22 684.794 1720.22 685.19H1705.54C1705.67 687.366 1706.28 689.03 1707.37 690.184C1708.45 691.305 1709.82 691.866 1711.47 691.866C1712.69 691.866 1713.73 691.552 1714.59 690.926C1715.48 690.267 1716.17 689.245 1716.66 687.86ZM1705.73 682.47H1716.71C1716.58 680.789 1716.17 679.536 1715.48 678.712C1714.39 677.426 1713 676.783 1711.32 676.783C1709.77 676.783 1708.47 677.294 1707.42 678.316C1706.39 679.338 1705.83 680.723 1705.73 682.47ZM1725.32 694.19V674.509H1728.33V677.476C1729.09 676.091 1729.78 675.184 1730.41 674.756C1731.07 674.294 1731.79 674.064 1732.59 674.064C1733.71 674.064 1734.84 674.41 1736 675.102L1734.86 678.217C1734.04 677.723 1733.23 677.476 1732.44 677.476C1731.68 677.476 1731 677.706 1730.41 678.168C1729.85 678.596 1729.45 679.206 1729.22 679.998C1728.83 681.184 1728.63 682.47 1728.63 683.855V694.19H1725.32ZM1736.69 688.305L1739.95 687.811C1740.15 689.129 1740.66 690.135 1741.49 690.827C1742.34 691.519 1743.55 691.866 1745.1 691.866C1746.61 691.866 1747.73 691.569 1748.46 690.975C1749.22 690.349 1749.6 689.607 1749.6 688.75C1749.6 687.992 1749.27 687.399 1748.61 686.97C1748.15 686.673 1747.01 686.294 1745.2 685.833C1742.76 685.206 1741.06 684.679 1740.1 684.25C1739.18 683.789 1738.47 683.162 1737.98 682.371C1737.48 681.58 1737.23 680.69 1737.23 679.701C1737.23 678.844 1737.43 678.036 1737.83 677.278C1738.22 676.52 1738.77 675.893 1739.46 675.399C1739.99 675.036 1740.7 674.723 1741.59 674.459C1742.48 674.195 1743.45 674.064 1744.5 674.064C1746.02 674.064 1747.35 674.294 1748.51 674.756C1749.7 675.184 1750.57 675.778 1751.13 676.536C1751.69 677.294 1752.07 678.3 1752.27 679.553L1749 679.998C1748.87 679.009 1748.44 678.234 1747.72 677.673C1747.02 677.08 1746.02 676.783 1744.7 676.783C1743.18 676.783 1742.1 677.047 1741.44 677.575C1740.78 678.069 1740.45 678.662 1740.45 679.355C1740.45 679.783 1740.58 680.162 1740.84 680.492C1741.14 680.855 1741.57 681.151 1742.13 681.382C1742.46 681.514 1743.45 681.794 1745.1 682.223C1747.47 682.882 1749.12 683.41 1750.04 683.805C1750.96 684.201 1751.69 684.778 1752.22 685.536C1752.74 686.294 1753.01 687.25 1753.01 688.404C1753.01 689.525 1752.68 690.58 1752.02 691.569C1751.39 692.525 1750.47 693.283 1749.25 693.844C1748.03 694.371 1746.65 694.635 1745.1 694.635C1742.52 694.635 1740.56 694.107 1739.21 693.052C1737.89 691.964 1737.05 690.382 1736.69 688.305Z" fill="#1A1A1A"/>
<path d="M1583.59 757.489C1583.59 767.976 1575.09 776.478 1564.6 776.478C1554.11 776.478 1545.61 767.976 1545.61 757.489C1545.61 747.002 1554.11 738.5 1564.6 738.5C1575.09 738.5 1583.59 747.002 1583.59 757.489Z" fill="#7BAAF7"/>
<path d="M1618.75 770.151V746.167H1609.8V742.953H1631.36V746.167H1622.36V770.151H1618.75ZM1647.03 763.821L1650.49 764.217C1649.97 766.228 1648.96 767.794 1647.48 768.914C1645.99 770.035 1644.12 770.596 1641.84 770.596C1638.97 770.596 1636.68 769.706 1634.97 767.925C1633.29 766.145 1632.45 763.656 1632.45 760.458C1632.45 757.162 1633.3 754.607 1635.02 752.794C1636.73 750.948 1638.94 750.024 1641.64 750.024C1644.28 750.024 1646.42 750.915 1648.07 752.695C1649.75 754.475 1650.59 756.997 1650.59 760.261C1650.59 760.458 1650.59 760.755 1650.59 761.151H1635.91C1636.04 763.327 1636.65 764.991 1637.74 766.145C1638.82 767.266 1640.19 767.827 1641.84 767.827C1643.06 767.827 1644.1 767.513 1644.96 766.887C1645.85 766.228 1646.54 765.206 1647.03 763.821ZM1636.1 758.431H1647.08C1646.95 756.75 1646.54 755.497 1645.85 754.673C1644.76 753.387 1643.37 752.744 1641.69 752.744C1640.14 752.744 1638.84 753.255 1637.79 754.277C1636.76 755.299 1636.2 756.684 1636.1 758.431ZM1654.4 764.266L1657.66 763.772C1657.86 765.09 1658.37 766.096 1659.2 766.788C1660.05 767.48 1661.26 767.827 1662.81 767.827C1664.32 767.827 1665.44 767.53 1666.17 766.936C1666.93 766.31 1667.31 765.568 1667.31 764.711C1667.31 763.953 1666.98 763.36 1666.32 762.931C1665.86 762.634 1664.72 762.255 1662.91 761.794C1660.47 761.167 1658.77 760.64 1657.81 760.211C1656.89 759.75 1656.18 759.123 1655.69 758.332C1655.19 757.541 1654.94 756.651 1654.94 755.662C1654.94 754.805 1655.14 753.997 1655.54 753.239C1655.93 752.481 1656.48 751.854 1657.17 751.36C1657.7 750.997 1658.41 750.684 1659.3 750.42C1660.19 750.156 1661.16 750.024 1662.21 750.024C1663.73 750.024 1665.07 750.255 1666.22 750.717C1667.41 751.145 1668.28 751.739 1668.84 752.497C1669.4 753.255 1669.78 754.261 1669.98 755.513L1666.71 755.958C1666.58 754.969 1666.15 754.195 1665.43 753.634C1664.74 753.041 1663.73 752.744 1662.41 752.744C1660.9 752.744 1659.81 753.008 1659.15 753.535C1658.49 754.03 1658.16 754.623 1658.16 755.316C1658.16 755.744 1658.29 756.123 1658.55 756.453C1658.85 756.816 1659.28 757.112 1659.84 757.343C1660.17 757.475 1661.16 757.755 1662.81 758.184C1665.18 758.843 1666.83 759.371 1667.75 759.766C1668.68 760.162 1669.4 760.739 1669.93 761.497C1670.46 762.255 1670.72 763.211 1670.72 764.365C1670.72 765.486 1670.39 766.541 1669.73 767.53C1669.1 768.486 1668.18 769.244 1666.96 769.805C1665.74 770.332 1664.36 770.596 1662.81 770.596C1660.24 770.596 1658.27 770.068 1656.92 769.013C1655.6 767.925 1654.76 766.343 1654.4 764.266ZM1685.16 767.184L1685.65 770.101C1684.7 770.299 1683.86 770.398 1683.13 770.398C1681.91 770.398 1680.97 770.217 1680.31 769.854C1679.65 769.458 1679.18 768.947 1678.88 768.321C1678.61 767.695 1678.48 766.376 1678.48 764.365V753.041H1676.06V750.47H1678.48V745.574L1681.8 743.596V750.47H1685.16V753.041H1681.8V764.563C1681.8 765.519 1681.85 766.129 1681.94 766.392C1682.08 766.656 1682.27 766.87 1682.54 767.035C1682.8 767.2 1683.18 767.283 1683.68 767.283C1684.07 767.283 1684.57 767.25 1685.16 767.184ZM1687.38 770.151V750.47H1690.35V753.239C1691.8 751.096 1693.89 750.024 1696.63 750.024C1697.82 750.024 1698.91 750.239 1699.89 750.667C1700.92 751.096 1701.68 751.656 1702.17 752.349C1702.66 753.041 1703.01 753.849 1703.21 754.772C1703.31 755.398 1703.36 756.486 1703.36 758.035V770.151H1700.04V758.184C1700.04 756.799 1699.91 755.777 1699.65 755.118C1699.38 754.459 1698.92 753.931 1698.26 753.535C1697.6 753.107 1696.83 752.893 1695.94 752.893C1694.52 752.893 1693.29 753.354 1692.23 754.277C1691.21 755.167 1690.7 756.865 1690.7 759.371V770.151H1687.38ZM1722.99 763.821L1726.45 764.217C1725.92 766.228 1724.92 767.794 1723.43 768.914C1721.95 770.035 1720.07 770.596 1717.8 770.596C1714.93 770.596 1712.64 769.706 1710.92 767.925C1709.24 766.145 1708.4 763.656 1708.4 760.458C1708.4 757.162 1709.26 754.607 1710.97 752.794C1712.69 750.948 1714.89 750.024 1717.6 750.024C1720.24 750.024 1722.38 750.915 1724.03 752.695C1725.71 754.475 1726.55 756.997 1726.55 760.261C1726.55 760.458 1726.55 760.755 1726.55 761.151H1711.86C1711.99 763.327 1712.6 764.991 1713.69 766.145C1714.78 767.266 1716.15 767.827 1717.8 767.827C1719.02 767.827 1720.05 767.513 1720.91 766.887C1721.8 766.228 1722.49 765.206 1722.99 763.821ZM1712.06 758.431H1723.04C1722.91 756.75 1722.49 755.497 1721.8 754.673C1720.71 753.387 1719.33 752.744 1717.65 752.744C1716.1 752.744 1714.8 753.255 1713.74 754.277C1712.72 755.299 1712.16 756.684 1712.06 758.431ZM1738.96 767.184L1739.46 770.101C1738.5 770.299 1737.66 770.398 1736.93 770.398C1735.71 770.398 1734.77 770.217 1734.11 769.854C1733.46 769.458 1732.98 768.947 1732.68 768.321C1732.42 767.695 1732.28 766.376 1732.28 764.365V753.041H1729.86V750.47H1732.28V745.574L1735.6 743.596V750.47H1738.96V753.041H1735.6V764.563C1735.6 765.519 1735.65 766.129 1735.75 766.392C1735.88 766.656 1736.08 766.87 1736.34 767.035C1736.6 767.2 1736.98 767.283 1737.48 767.283C1737.87 767.283 1738.37 767.25 1738.96 767.184Z" fill="#1A1A1A"/>
</g>
<defs>
<clipPath id="clip0_856_15662">
<rect width="2266" height="1421" fill="white"/>
</clipPath>
</defs>
</svg>
