<svg width="689" height="230" viewBox="0 0 689 230" fill="none" xmlns="http://www.w3.org/2000/svg">
<path d="M569.57 83.0208C564.239 77.6897 555.946 77.3128 550.13 81.7822L540.061 71.7125C543.345 67.0815 542.968 60.6196 538.822 56.4733C534.191 51.8422 526.652 51.8422 522.021 56.4733C517.39 61.1043 517.39 68.6431 522.021 73.2741C526.168 77.4205 532.629 77.8513 537.26 74.5126L547.33 84.5824C543.292 89.8596 543.292 97.183 547.33 102.46L523.583 126.208C521.106 124.323 517.983 123.138 514.59 123.138C506.405 123.138 499.728 129.762 499.728 138C499.728 146.186 506.351 152.863 514.59 152.863C522.775 152.863 529.452 146.239 529.452 138C529.452 134.608 528.322 131.485 526.383 129.008L550.13 105.26C555.946 109.676 564.239 109.299 569.57 104.022C575.386 98.2062 575.386 88.8364 569.57 83.0208Z" fill="#F05623"/>
<path d="M514.592 98.4727C492.783 98.4727 475.013 116.243 475.013 138.052C475.013 159.86 492.783 177.631 514.592 177.631C536.401 177.631 554.171 159.86 554.171 138.052C554.171 116.243 536.401 98.4727 514.592 98.4727ZM514.592 161.745C501.507 161.745 490.844 151.083 490.844 137.998C490.844 124.912 501.507 114.25 514.592 114.25C527.677 114.25 538.339 124.912 538.339 137.998C538.339 151.083 527.677 161.745 514.592 161.745Z" fill="black"/>
<path d="M452.293 115.281H467.102V101.442H452.24V78.7178H436.408V101.442H424.561V115.281H436.408V157.822C436.408 168.753 445.239 177.584 456.171 177.584H459.132C463.063 177.584 467.048 176.615 467.048 176.615V160.783C467.048 160.783 463.117 161.753 459.132 161.753H458.163C454.878 161.753 452.24 159.114 452.24 155.829V115.281H452.293Z" fill="black"/>
<path d="M400.857 154.369C400.857 148.338 394.933 144.999 385.025 144.999H380.071C358.316 144.999 348.408 135.629 348.408 121.252C348.408 108.866 359.286 98.5273 381.04 98.5273C402.795 98.5273 413.673 108.92 413.673 122.275H397.841V121.79C397.841 115.759 391.918 112.42 382.01 112.42H380.017C370.109 112.42 364.186 115.813 364.186 121.79C364.186 127.767 370.109 131.16 380.017 131.16H385.941C407.696 131.16 416.581 140.529 416.581 154.907C416.581 167.292 403.711 177.631 381.956 177.631C360.201 177.631 347.331 169.231 347.331 154.907V151.945H363.163V154.422C363.163 160.454 369.086 163.792 378.994 163.792H384.918C394.933 163.738 400.857 160.346 400.857 154.369Z" fill="black"/>
<path d="M166.941 75.6953C184.657 75.6953 199.089 90.1268 199.089 107.843C199.089 125.559 184.657 139.991 166.941 139.991H133.824V174.616H116V75.6953H166.941ZM133.824 91.5269V124.159ZM133.824 124.159H165.002C173.995 124.159 181.319 116.836 181.319 107.843C181.319 98.8503 173.995 91.5269 165.002 91.5269H133.824V124.159Z" fill="black"/>
<path d="M247.553 99.4414C237.43 99.4414 230.806 104.072 226.768 111.988V101.434H210.936V174.614H226.768V135.036C226.768 124.104 231.722 114.25 245.561 114.25C249.492 114.25 253.477 115.219 253.477 115.219V100.465C253.477 100.465 250.515 99.4414 247.553 99.4414Z" fill="black"/>
<path d="M328.166 143.975H337.105C337.375 142.036 337.536 140.044 337.536 138.052C337.536 116.297 321.704 98.4727 297.957 98.4727C274.21 98.4727 258.378 116.297 258.378 138.052C258.378 159.807 274.21 177.631 297.957 177.631C315.566 177.631 328.813 167.83 334.467 153.883H318.204C314.596 160.237 308.027 163.791 297.957 163.791C283.526 163.791 276.256 156.468 274.587 144.029H321.328H328.166V143.975ZM298.011 112.312C311.689 112.312 318.904 118.828 321.058 130.136H274.964C277.064 118.828 284.333 112.312 298.011 112.312Z" fill="black"/>
</svg>
